<?xml version="1.0" encoding="UTF-8"?>
<svg xmlns="http://www.w3.org/2000/svg" xmlns:xlink="http://www.w3.org/1999/xlink" width="1280" height="640" viewBox="0 0 10080 5040">
<defs>
<clipPath id="c">
<path d="M0,0V1.5H7V3H6zM6,0H3V3.5H0V3z"/>
</clipPath>
<path id="d" d="M0,-360 69.421398,-144.155019 281.459334,-224.456329 155.988466,-35.603349 350.364704,80.107536 125.168237,99.758368 156.456581,324.348078 0,160 -156.456581,324.348078 -125.168237,99.758368 -350.364704,80.107536 -155.988466,-35.603349 -281.459334,-224.456329 -69.421398,-144.155019z"/>
<path id="e" d="M0,-210 54.859957,-75.508253 199.721868,-93.333333 88.765275,28.342036 133.071161,180 0,90 -133.071161,180 -88.765275,28.342036 -199.721868,-93.333333 -54.859957,-75.508253z"/>
</defs>
<rect width="10080" height="5040" fill="#012169"/>
<path d="M0,0 L5040,2520M5040,0 L0,2520" stroke="#fff" stroke-width="504"/>
<path d="M0,0 L5040,2520M5040,0 L0,2520" clip-path="url(#c)" stroke="#e4002b" stroke-width="336"/>
<path d="M2520,0V2520M0,1260H5040" stroke="#fff" stroke-width="504"/>
<path d="M2520,0V2520M0,1260H5040" stroke="#e4002b" stroke-width="336"/>
<path d="M0,0H5040V2520H0z" fill="#012169"/>
<g fill="#fff">
<use xlink:href="#d" x="2520" y="1260"/>
<use xlink:href="#e" x="7560" y="1260"/>
<use xlink:href="#e" x="6300" y="2940"/>
<use xlink:href="#e" x="7560" y="4200"/>
<use xlink:href="#e" x="8680" y="2940"/>
<use xlink:href="#e" x="8064" y="1239"/>
</g>
</svg>