<?xml version="1.0" encoding="UTF-8" standalone="no"?>
<svg xmlns="http://www.w3.org/2000/svg" width="1200" height="600" viewBox="0 0 9600 4800">
<rect width="9600" height="4800" fill="#f00"/>
<rect width="4800" height="4800" fill="#fff"/>
<path fill="#ff0000" d="m 7510.73,2400 -879.26,0 0,-685.26 -685.26,0 0,-879.26 879.26,0 0,-835.47 685.26,0 0,835.47 835.48,0 0,879.26 -835.48,0 z M 6095.74,458.04 c 0,188.85 -153.5,342.17 -342.17,342.17 -188.85,0 -342.17,-153.31 -342.17,-342.17 0,-188.85 153.32,-342.17 342.17,-342.17 188.67,0 342.17,153.32 342.17,342.17 z M 6095.74,4341.96 c 0,188.85 -153.5,342.17 -342.17,342.17 -188.85,0 -342.17,-153.31 -342.17,-342.17 0,-188.85 153.32,-342.17 342.17,-342.17 188.67,0 342.17,153.32 342.17,342.17 z M 3188.26,458.04 c 0,188.85 -153.31,342.17 -342.17,342.17 -188.85,0 -342.17,-153.31 -342.17,-342.17 0,-188.85 153.32,-342.17 342.17,-342.17 188.85,0 342.17,153.32 342.17,342.17 z M 3188.26,4341.96 c 0,188.85 -153.31,342.17 -342.17,342.17 -188.85,0 -342.17,-153.31 -342.17,-342.17 0,-188.85 153.32,-342.17 342.17,-342.17 188.85,0 342.17,153.32 342.17,342.17 z"/>
</svg>