<?xml version="1.0" encoding="UTF-8"?>
<svg xmlns="http://www.w3.org/2000/svg" xmlns:xlink="http://www.w3.org/1999/xlink" width="1235" height="650" viewBox="0 0 1235 650">
<rect width="1235" height="650" fill="#bf0a30"/>
<path d="M0,75H1235 M0,150H1235 M0,225H1235 M0,300H1235 M0,375H1235 M0,450H1235 M0,525H1235 M0,600H1235" stroke="#ffffff" stroke-width="50"/>
<rect width="494" height="350" fill="#002868"/>
<g fill="#ffffff">
<g id="s5">
<g id="s4">
<g id="s3">
<g id="s2">
<g id="s1">
<g id="s">
<polygon id="s0" points="0,0 0,1 .5,1" transform="translate(0,-1) rotate(36)"/>
<use xlink:href="#s0" transform="scale(-1,1)"/>
</g>
<use xlink:href="#s" transform="rotate(72)"/>
</g>
<use xlink:href="#s2" transform="rotate(72)"/>
</g>
<use xlink:href="#s3" transform="rotate(72)"/>
</g>
<use xlink:href="#s4" transform="rotate(72)"/>
</g>
<use xlink:href="#s5" transform="rotate(144)"/>
</g>
<g id="c">
<circle r="17.5" fill="none"/>
<g id="r8">
<g id="r4">
<g id="r2">
<path id="r1" d="M-28,0A28,28 0 0,0 0,-28A28,28 0 0,0 28,0" fill="none" transform="rotate(11.25)"/>
<use xlink:href="#r1" transform="scale(-1,1)"/>
</g>
<use xlink:href="#r2" transform="rotate(45)"/>
</g>
<use xlink:href="#r4" transform="rotate(90)"/>
</g>
<g transform="translate(-35,-35) scale(1.75)" fill="#fff">
<use xlink:href="#r8" transform="rotate(22.5)"/>
</g>
</g>
<g id="d">
<g transform="translate(0,-40)">
<use xlink:href="#c"/>
</g>
<g transform="translate(0,40)">
<use xlink:href="#c"/>
</g>
</g>
<g transform="translate(-82,-82)">
<use xlink:href="#c"/>
</g>
<g transform="translate(82,-82)">
<use xlink:href="#c"/>
</g>
<g transform="translate(-82,82)">
<use xlink:href="#c"/>
</g>
<g transform="translate(82,82)">
<use xlink:href="#c"/>
</g>
<g id="e">
<g transform="translate(-42,-40)">
<use xlink:href="#d"/>
</g>
<g transform="translate(41.5,-40)">
<use xlink:href="#d"/>
</g>
<g transform="translate(-42,40)">
<use xlink:href="#d"/>
</g>
<g transform="translate(41.5,40)">
<use xlink:href="#d"/>
</g>
</g>
<g id="f">
<g id="h">
<use xlink:href="#e" y="-42"/>
<use xlink:href="#e" y="41.5"/>
</g>
<use xlink:href="#h" x="-82"/>
<use xlink:href="#h" x="82"/>
</g>
<g transform="scale(65)">
<use xlink:href="#g" transform="translate(3.8,3.8)"/>
</g>
</svg>