<?xml version="1.0" encoding="UTF-8"?>
<svg width="100" height="100" viewBox="0 0 100 100" fill="none" xmlns="http://www.w3.org/2000/svg">
  <path d="M70 80C70 80 60 78 55 76C50 74 45 70 40 70C35 70 30 72 25 74C20 76 10 80 10 80" stroke="#0077B6" stroke-width="3" stroke-linecap="round"/>
  <path d="M80 65C80 65 70 60 65 57.5C60 55 55 52.5 50 52.5C45 52.5 40 55 35 57.5C30 60 20 65 20 65" stroke="#0077B6" stroke-width="3" stroke-linecap="round"/>
  <path d="M90 50C90 50 80 43.5 75 40C70 36.5 65 33.5 60 33.5C55 33.5 50 36.5 45 40C40 43.5 30 50 30 50" stroke="#0077B6" stroke-width="3" stroke-linecap="round"/>
  <path d="M50 90L50 20" stroke="#0077B6" stroke-width="3" stroke-linecap="round"/>
  <path d="M50 20C50 20 47 15 45 12.5C43 10 40 7.5 37.5 6.5C35 5.5 30 5 30 5" stroke="#0077B6" stroke-width="3" stroke-linecap="round"/>
  <path d="M50 20C50 20 53 15 55 12.5C57 10 60 7.5 62.5 6.5C65 5.5 70 5 70 5" stroke="#0077B6" stroke-width="3" stroke-linecap="round"/>
  <path d="M65 25L60 15" stroke="#0077B6" stroke-width="3" stroke-linecap="round"/>
  <path d="M35 25L40 15" stroke="#0077B6" stroke-width="3" stroke-linecap="round"/>
</svg>
