<?xml version="1.0" encoding="UTF-8"?>
<svg width="100" height="100" viewBox="0 0 100 100" fill="none" xmlns="http://www.w3.org/2000/svg">
  <path d="M80.5 43.5C80.5 43.5 79.5 39.5 78.5 37.5C77.5 35.5 76 33 74.5 31.5C73 30 71 28.5 69 27.5C67 26.5 64.5 25.5 62 25C59.5 24.5 56.5 24 54 24C51.5 24 48.5 24.5 46 25C43.5 25.5 41 26.5 39 27.5C37 28.5 35 30 33.5 31.5C32 33 30.5 35.5 29.5 37.5C28.5 39.5 27.5 43.5 27.5 43.5" stroke="#0077B6" stroke-width="3" stroke-linecap="round"/>
  <path d="M54 55C54 55 56 52.5 57.5 51.5C59 50.5 61 49.5 63 49C65 48.5 67.5 48.5 69.5 49C71.5 49.5 73.5 50.5 75 52C76.5 53.5 77.5 55.5 78 57.5C78.5 59.5 78.5 62 78 64C77.5 66 76.5 68 75 69.5C73.5 71 71.5 72 69.5 72.5C67.5 73 65 73 63 72.5C61 72 59 71 57.5 70C56 69 54 67 54 67" stroke="#0077B6" stroke-width="3" stroke-linecap="round"/>
  <path d="M54 55C54 55 52 52.5 50.5 51.5C49 50.5 47 49.5 45 49C43 48.5 40.5 48.5 38.5 49C36.5 49.5 34.5 50.5 33 52C31.5 53.5 30.5 55.5 30 57.5C29.5 59.5 29.5 62 30 64C30.5 66 31.5 68 33 69.5C34.5 71 36.5 72 38.5 72.5C40.5 73 43 73 45 72.5C47 72 49 71 50.5 70C52 69 54 67 54 67" stroke="#0077B6" stroke-width="3" stroke-linecap="round"/>
  <path d="M32 31.5C32 31.5 29 28 27 26C25 24 22.5 22.5 20 21.5C17.5 20.5 14.5 20 12 20C9.5 20 7 20.5 5 21.5C3 22.5 2 23.5 2 23.5" stroke="#0077B6" stroke-width="3" stroke-linecap="round"/>
  <path d="M76 31.5C76 31.5 79 28 81 26C83 24 85.5 22.5 88 21.5C90.5 20.5 93.5 20 96 20C98.5 20 98 20.5 98 20.5" stroke="#0077B6" stroke-width="3" stroke-linecap="round"/>
  <path d="M54 67C54 67 54 70.5 54 73C54 75.5 54 78.5 54 81C54 83.5 54 86.5 54 89C54 91.5 54 93.5 54 95" stroke="#0077B6" stroke-width="3" stroke-linecap="round"/>
  <path d="M78 58C78 58 81 61 83 63C85 65 87.5 67.5 89.5 69.5C91.5 71.5 94 74 96 76C98 78 99 80.5 99 80.5" stroke="#0077B6" stroke-width="3" stroke-linecap="round"/>
  <path d="M30 58C30 58 27 61 25 63C23 65 20.5 67.5 18.5 69.5C16.5 71.5 14 74 12 76C10 78 8 80.5 8 80.5" stroke="#0077B6" stroke-width="3" stroke-linecap="round"/>
</svg>
