<?xml version="1.0" encoding="UTF-8"?>
<svg width="600" height="800" viewBox="0 0 600 800" fill="none" xmlns="http://www.w3.org/2000/svg">
  <path d="M250.3,139.8 C252.1,139.2 253.9,138.8 255.7,138.2 C257.5,137.6 259.3,136.9 261.1,136.1 C262.9,135.3 264.7,134.4 266.5,133.4 C268.3,132.4 270.1,131.3 271.9,130.1 C272.8,129.5 273.7,128.8 274.6,128.1 C275.5,127.4 276.4,126.6 277.3,125.8 C279.1,124.2 280.8,122.5 282.5,120.7 C284.2,118.9 285.8,117 287.4,115 C289,113 290.5,110.9 292,108.7 C293.5,106.5 294.9,104.2 296.3,101.9 C297.7,99.6 299,97.2 300.3,94.7 C301.6,92.2 302.8,89.7 304,87.1 C305.2,84.5 306.3,81.9 307.4,79.2 C308.5,76.5 309.5,73.8 310.5,71 C311.5,68.2 312.4,65.4 313.3,62.5 C314.2,59.6 315,56.7 315.8,53.8 C316.6,50.9 317.3,47.9 318,44.9 C318.7,41.9 319.3,38.9 319.9,35.9 C320.5,32.9 321,30 321.5,27 C322,24 322.5,21 322.9,18 C323.3,15 323.7,12 324,9 C324.3,6 324.6,3 324.8,0 C324.8,0 325,0 325,0 C325.2,3 325.4,6 325.7,9 C326,12 326.2,15 326.5,18 C326.8,21 327.1,24 327.4,27 C327.7,30 328,33 328.3,36 C328.6,39 328.9,42 329.2,45 C329.5,48 329.8,51 330.1,54 C330.4,57 330.7,60 331,63 C331.3,66 331.6,69 331.9,72 C332.2,75 332.5,78 332.8,81 C333.1,84 333.4,87 333.7,90 C334,93 334.3,96 334.6,99 C334.9,102 335.2,105 335.5,108 C335.8,111 336.1,114 336.4,117 C336.7,120 337,123 337.3,126 C337.6,129 337.9,132 338.2,135 C338.5,138 338.8,141 339.1,144 C339.4,147 339.7,150 340,153 C340.3,156 340.6,159 340.9,162 C341.2,165 341.5,168 341.8,171 C342.1,174 342.4,177 342.7,180 C343,183 343.3,186 343.6,189 C343.9,192 344.2,195 344.5,198 C344.8,201 345.1,204 345.4,207 C345.7,210 346,213 346.3,216 C346.6,219 346.9,222 347.2,225 C347.5,228 347.8,231 348.1,234 C348.4,237 348.7,240 349,243 C349.3,246 349.6,249 349.9,252 C350.2,255 350.5,258 350.8,261 C351.1,264 351.4,267 351.7,270 C352,273 352.3,276 352.6,279 C352.9,282 353.2,285 353.5,288 C353.8,291 354.1,294 354.4,297 C354.7,300 355,303 355.3,306 C355.6,309 355.9,312 356.2,315 C356.5,318 356.8,321 357.1,324 C357.4,327 357.7,330 358,333 C358.3,336 358.6,339 358.9,342 C359.2,345 359.5,348 359.8,351 C360.1,354 360.4,357 360.7,360 C361,363 361.3,366 361.6,369 C361.9,372 362.2,375 362.5,378 C362.8,381 363.1,384 363.4,387 C363.7,390 364,393 364.3,396 C364.6,399 364.9,402 365.2,405 C365.5,408 365.8,411 366.1,414 C366.4,417 366.7,420 367,423 C367.3,426 367.6,429 367.9,432 C368.2,435 368.5,438 368.8,441 C369.1,444 369.4,447 369.7,450 C370,453 370.3,456 370.6,459 C370.9,462 371.2,465 371.5,468 C371.8,471 372.1,474 372.4,477 C372.7,480 373,483 373.3,486 C373.6,489 373.9,492 374.2,495 C374.5,498 374.8,501 375.1,504 C375.4,507 375.7,510 376,513 C376.3,516 376.6,519 376.9,522 C377.2,525 377.5,528 377.8,531 C378.1,534 378.4,537 378.7,540 C379,543 379.3,546 379.6,549 C379.9,552 380.2,555 380.5,558 C380.8,561 381.1,564 381.4,567 C381.7,570 382,573 382.3,576 C382.6,579 382.9,582 383.2,585 C383.5,588 383.8,591 384.1,594 C384.4,597 384.7,600 385,603 C385.3,606 385.6,609 385.9,612 C386.2,615 386.5,618 386.8,621 C387.1,624 387.4,627 387.7,630 C388,633 388.3,636 388.6,639 C388.9,642 389.2,645 389.5,648 C389.8,651 390.1,654 390.4,657 C390.7,660 391,663 391.3,666 C391.6,669 391.9,672 392.2,675 C392.5,678 392.8,681 393.1,684 C393.4,687 393.7,690 394,693 C394.3,696 394.6,699 394.9,702 C395.2,705 395.5,708 395.8,711 C396.1,714 396.4,717 396.7,720 C397,723 397.3,726 397.6,729 C397.9,732 398.2,735 398.5,738 C398.8,741 399.1,744 399.4,747 C399.7,750 400,753 400.3,756 C400.6,759 400.9,762 401.2,765 C401.5,768 401.8,771 402.1,774 C402.4,777 402.7,780 403,783 C403.3,786 403.6,789 403.9,792 C404.2,795 404.5,798 404.8,801 C405.1,804 405.4,807 405.7,810 C405.8,811.5 406,813 406.1,814.5 C406.2,816 406.3,817.5 406.4,819 C406.5,820.5 406.6,822 406.7,823.5 C406.8,825 406.9,826.5 407,828 C407.5,834 407.9,840 408.4,846 C408.9,852 409.3,858 409.8,864 C410.3,870 410.7,876 411.2,882 C411.7,888 412.1,894 412.6,900 C413.1,906 413.5,912 414,918 C414.5,924 414.9,930 415.4,936 C415.9,942 416.3,948 416.8,954 C417.3,960 417.7,966 418.2,972 C418.7,978 419.1,984 419.6,990 C420.1,996 420.5,1002 421,1008 C421.5,1014 421.9,1020 422.4,1026 C422.9,1032 423.3,1038 423.8,1044 C424.3,1050 424.7,1056 425.2,1062 C425.7,1068 426.1,1074 426.6,1080 C427.1,1086 427.5,1092 428,1098 C428.5,1104 428.9,1110 429.4,1116 C429.9,1122 430.3,1128 430.8,1134 C431.3,1140 431.7,1146 432.2,1152 C432.7,1158 433.1,1164 433.6,1170 C434.1,1176 434.5,1182 435,1188 C435.5,1194 435.9,1200 436.4,1206 C436.9,1212 437.3,1218 437.8,1224 C438.3,1230 438.7,1236 439.2,1242 C439.7,1248 440.1,1254 440.6,1260 C441.1,1266 441.5,1272 442,1278 C442.5,1284 442.9,1290 443.4,1296 C443.9,1302 444.3,1308 444.8,1314 C445.3,1320 445.7,1326 446.2,1332 C446.7,1338 447.1,1344 447.6,1350 C448.1,1356 448.5,1362 449,1368 C449.5,1374 449.9,1380 450.4,1386 C450.9,1392 451.3,1398 451.8,1404 C452.3,1410 452.7,1416 453.2,1422 C453.7,1428 454.1,1434 454.6,1440 C455.1,1446 455.5,1452 456,1458 C456.5,1464 456.9,1470 457.4,1476 C457.9,1482 458.3,1488 458.8,1494 C459.3,1500 459.7,1506 460.2,1512 C460.7,1518 461.1,1524 461.6,1530 C462.1,1536 462.5,1542 463,1548 C463.5,1554 463.9,1560 464.4,1566 C464.9,1572 465.3,1578 465.8,1584 C466.3,1590 466.7,1596 467.2,1602 C467.7,1608 468.1,1614 468.6,1620 C469.1,1626 469.5,1632 470,1638 C470.5,1644 470.9,1650 471.4,1656 C471.9,1662 472.3,1668 472.8,1674 C473.3,1680 473.7,1686 474.2,1692 C474.7,1698 475.1,1704 475.6,1710 C476.1,1716 476.5,1722 477,1728 C477.5,1734 477.9,1740 478.4,1746 C478.9,1752 479.3,1758 479.8,1764 C480.3,1770 480.7,1776 481.2,1782 C481.7,1788 482.1,1794 482.6,1800 C483.1,1806 483.5,1812 484,1818 C484.5,1824 484.9,1830 485.4,1836 C485.9,1842 486.3,1848 486.8,1854 C487.3,1860 487.7,1866 488.2,1872 C488.7,1878 489.1,1884 489.6,1890 C490.1,1896 490.5,1902 491,1908 C491.5,1914 491.9,1920 492.4,1926 C492.9,1932 493.3,1938 493.8,1944 C494.3,1950 494.7,1956 495.2,1962 C495.7,1968 496.1,1974 496.6,1980 C497.1,1986 497.5,1992 498,1998 C498.5,2004 498.9,2010 499.4,2016 C499.9,2022 500.3,2028 500.8,2034 C501.3,2040 501.7,2046 502.2,2052 C502.7,2058 503.1,2064 503.6,2070 C504.1,2076 504.5,2082 505,2088 C505.5,2094 505.9,2100 506.4,2106 C506.9,2112 507.3,2118 507.8,2124 C508.3,2130 508.7,2136 509.2,2142 C509.7,2148 510.1,2154 510.6,2160 C511.1,2166 511.5,2172 512,2178 C512.5,2184 512.9,2190 513.4,2196 C513.9,2202 514.3,2208 514.8,2214 C515.3,2220 515.7,2226 516.2,2232 C516.7,2238 517.1,2244 517.6,2250 C518.1,2256 518.5,2262 519,2268 C519.5,2274 519.9,2280 520.4,2286 C520.9,2292 521.3,2298 521.8,2304 C522.3,2310 522.7,2316 523.2,2322 C523.7,2328 524.1,2334 524.6,2340 C525.1,2346 525.5,2352 526,2358 C526.5,2364 526.9,2370 527.4,2376 C527.9,2382 528.3,2388 528.8,2394 C529.3,2400 529.7,2406 530.2,2412 C530.7,2418 531.1,2424 531.6,2430 C532.1,2436 532.5,2442 533,2448 C533.5,2454 533.9,2460 534.4,2466 C534.9,2472 535.3,2478 535.8,2484 C536.3,2490 536.7,2496 537.2,2502 C537.7,2508 538.1,2514 538.6,2520 C539.1,2526 539.5,2532 540,2538 C540.5,2544 540.9,2550 541.4,2556 C541.9,2562 542.3,2568 542.8,2574 C543.3,2580 543.7,2586 544.2,2592 C544.7,2598 545.1,2604 545.6,2610 C546.1,2616 546.5,2622 547,2628 C547.5,2634 547.9,2640 548.4,2646 C548.9,2652 549.3,2658 549.8,2664 C550.3,2670 550.7,2676 551.2,2682 C551.7,2688 552.1,2694 552.6,2700 C553.1,2706 553.5,2712 554,2718 C554.5,2724 554.9,2730 555.4,2736 C555.9,2742 556.3,2748 556.8,2754 C557.3,2760 557.7,2766 558.2,2772 C558.7,2778 559.1,2784 559.6,2790 C560.1,2796 560.5,2802 561,2808 C561.5,2814 561.9,2820 562.4,2826 C562.9,2832 563.3,2838 563.8,2844 C564.3,2850 564.7,2856 565.2,2862 C565.7,2868 566.1,2874 566.6,2880 C567.1,2886 567.5,2892 568,2898 C568.5,2904 568.9,2910 569.4,2916 C569.9,2922 570.3,2928 570.8,2934 C571.3,2940 571.7,2946 572.2,2952 C572.7,2958 573.1,2964 573.6,2970 C574.1,2976 574.5,2982 575,2988 C575.5,2994 575.9,3000 576.4,3006 C576.9,3012 577.3,3018 577.8,3024 C578.3,3030 578.7,3036 579.2,3042 C579.7,3048 580.1,3054 580.6,3060 C581.1,3066 581.5,3072 582,3078 C582.5,3084 582.9,3090 583.4,3096 C583.9,3102 584.3,3108 584.8,3114 C585.3,3120 585.7,3126 586.2,3132 C586.7,3138 587.1,3144 587.6,3150 C588.1,3156 588.5,3162 589,3168 C589.5,3174 589.9,3180 590.4,3186 C590.9,3192 591.3,3198 591.8,3204 C592.3,3210 592.7,3216 593.2,3222 C593.7,3228 594.1,3234 594.6,3240 C595.1,3246 595.5,3252 596,3258 C596.5,3264 596.9,3270 597.4,3276 C597.9,3282 598.3,3288 598.8,3294 C599.3,3300 599.7,3306 600.2,3312 C600.7,3318 601.1,3324 601.6,3330 C602.1,3336 602.5,3342 603,3348 C603.5,3354 603.9,3360 604.4,3366 C604.9,3372 605.3,3378 605.8,3384 C606.3,3390 606.7,3396 607.2,3402 C607.7,3408 608.1,3414 608.6,3420 C609.1,3426 609.5,3432 610,3438 C610.5,3444 610.9,3450 611.4,3456 C611.9,3462 612.3,3468 612.8,3474 C613.3,3480 613.7,3486 614.2,3492 C614.7,3498 615.1,3504 615.6,3510 C616.1,3516 616.5,3522 617,3528 C617.5,3534 617.9,3540 618.4,3546 C618.9,3552 619.3,3558 619.8,3564 C620.3,3570 620.7,3576 621.2,3582 C621.7,3588 622.1,3594 622.6,3600 C623.1,3606 623.5,3612 624,3618 C624.5,3624 624.9,3630 625.4,3636 C625.9,3642 626.3,3648 626.8,3654 C627.3,3660 627.7,3666 628.2,3672 C628.7,3678 629.1,3684 629.6,3690 C630.1,3696 630.5,3702 631,3708 C631.5,3714 631.9,3720 632.4,3726 C632.9,3732 633.3,3738 633.8,3744 C634.3,3750 634.7,3756 635.2,3762 C635.7,3768 636.1,3774 636.6,3780 C637.1,3786 637.5,3792 638,3798 C638.5,3804 638.9,3810 639.4,3816 C639.9,3822 640.3,3828 640.8,3834 C641.3,3840 641.7,3846 642.2,3852 C642.7,3858 643.1,3864 643.6,3870 C644.1,3876 644.5,3882 645,3888 C645.5,3894 645.9,3900 646.4,3906 C646.9,3912 647.3,3918 647.8,3924 C648.3,3930 648.7,3936 649.2,3942 C649.7,3948 650.1,3954 650.6,3960 C651.1,3966 651.5,3972 652,3978 C652.5,3984 652.9,3990 653.4,3996 C653.9,4002 654.3,4008 654.8,4014 C655.3,4020 655.7,4026 656.2,4032 C656.7,4038 657.1,4044 657.6,4050 C658.1,4056 658.5,4062 659,4068 C659.5,4074 659.9,4080 660.4,4086 C660.9,4092 661.3,4098 661.8,4104 C662.3,4110 662.7,4116 663.2,4122 C663.7,4128 664.1,4134 664.6,4140 C665.1,4146 665.5,4152 666,4158 C666.5,4164 666.9,4170 667.4,4176 C667.9,4182 668.3,4188 668.8,4194 C669.3,4200 669.7,4206 670.2,4212 C670.7,4218 671.1,4224 671.6,4230 C672.1,4236 672.5,4242 673,4248 C673.5,4254 673.9,4260 674.4,4266 C674.9,4272 675.3,4278 675.8,4284 C676.3,4290 676.7,4296 677.2,4302 C677.7,4308 678.1,4314 678.6,4320 C679.1,4326 679.5,4332 680,4338 C680.5,4344 680.9,4350 681.4,4356 C681.9,4362 682.3,4368 682.8,4374 C683.3,4380 683.7,4386 684.2,4392 C684.7,4398 685.1,4404 685.6,4410 C686.1,4416 686.5,4422 687,4428 C687.5,4434 687.9,4440 688.4,4446 C688.9,4452 689.3,4458 689.8,4464 C690.3,4470 690.7,4476 691.2,4482 C691.7,4488 692.1,4494 692.6,4500 C693.1,4506 693.5,4512 694,4518 C694.5,4524 694.9,4530 695.4,4536 C695.9,4542 696.3,4548 696.8,4554 C697.3,4560 697.7,4566 698.2,4572 C698.7,4578 699.1,4584 699.6,4590 C700.1,4596 700.5,4602 701,4608 C701.5,4614 701.9,4620 702.4,4626 C702.9,4632 703.3,4638 703.8,4644 C704.3,4650 704.7,4656 705.2,4662 C705.7,4668 706.1,4674 706.6,4680 C707.1,4686 707.5,4692 708,4698 C708.5,4704 708.9,4710 709.4,4716 C709.9,4722 710.3,4728 710.8,4734 C711.3,4740 711.7,4746 712.2,4752 C712.7,4758 713.1,4764 713.6,4770 C714.1,4776 714.5,4782 715,4788 C715.5,4794 715.9,4800 716.4,4806 C716.9,4812 717.3,4818 717.8,4824 C718.3,4830 718.7,4836 719.2,4842 C719.7,4848 720.1,4854 720.6,4860 C721.1,4866 721.5,4872 722,4878 C722.5,4884 722.9,4890 723.4,4896 C723.9,4902 724.3,4908 724.8,4914 C725.3,4920 725.7,4926 726.2,4932 C726.7,4938 727.1,4944 727.6,4950 C728.1,4956 728.5,4962 729,4968 C729.5,4974 729.9,4980 730.4,4986 C730.9,4992 731.3,4998 731.8,5004 C732.3,5010 732.7,5016 733.2,5022 C733.7,5028 734.1,5034 734.6,5040 C735.1,5046 735.5,5052 736,5058 C736.5,5064 736.9,5070 737.4,5076 C737.9,5082 738.3,5088 738.8,5094 C739.3,5100 739.7,5106 740.2,5112 C740.7,5118 741.1,5124 741.6,5130 C742.1,5136 742.5,5142 743,5148 C743.5,5154 743.9,5160 744.4,5166 C744.9,5172 745.3,5178 745.8,5184 C746.3,5190 746.7,5196 747.2,5202 C747.7,5208 748.1,5214 748.6,5220 C749.1,5226 749.5,5232 750,5238 C750.5,5244 750.9,5250 751.4,5256 C751.9,5262 752.3,5268 752.8,5274 C753.3,5280 753.7,5286 754.2,5292 C754.7,5298 755.1,5304 755.6,5310 C756.1,5316 756.5,5322 757,5328 C757.5,5334 757.9,5340 758.4,5346 C758.9,5352 759.3,5358 759.8,5364 C760.3,5370 760.7,5376 761.2,5382 C761.7,5388 762.1,5394 762.6,5400 C763.1,5406 763.5,5412 764,5418 C764.5,5424 764.9,5430 765.4,5436 C765.9,5442 766.3,5448 766.8,5454 C767.3,5460 767.7,5466 768.2,5472 C768.7,5478 769.1,5484 769.6,5490 C770.1,5496 770.5,5502 771,5508 C771.5,5514 771.9,5520 772.4,5526 C772.9,5532 773.3,5538 773.8,5544 C774.3,5550 774.7,5556 775.2,5562 C775.7,5568 776.1,5574 776.6,5580 C777.1,5586 777.5,5592 778,5598 C778.5,5604 778.9,5610 779.4,5616 C779.9,5622 780.3,5628 780.8,5634 C781.3,5640 781.7,5646 782.2,5652 C782.7,5658 783.1,5664 783.6,5670 C784.1,5676 784.5,5682 785,5688 C785.5,5694 785.9,5700 786.4,5706 C786.9,5712 787.3,5718 787.8,5724 C788.3,5730 788.7,5736 789.2,5742 C789.7,5748 790.1,5754 790.6,5760 C791.1,5766 791.5,5772 792,5778 C792.5,5784 792.9,5790 793.4,5796 C793.9,5802 794.3,5808 794.8,5814 C795.3,5820 795.7,5826 796.2,5832 C796.7,5838 797.1,5844 797.6,5850 C798.1,5856 798.5,5862 799,5868 C799.5,5874 799.9,5880 800.4,5886 C800.9,5892 801.3,5898 801.8,5904 C802.3,5910 802.7,5916 803.2,5922 C803.7,5928 804.1,5934 804.6,5940 C805.1,5946 805.5,5952 806,5958 C806.5,5964 806.9,5970 807.4,5976 C807.9,5982 808.3,5988 808.8,5994 C809.3,6000 809.7,6006 810.2,6012 C810.7,6018 811.1,6024 811.6,6030 C812.1,6036 812.5,6042 813,6048 C813.5,6054 813.9,6060 814.4,6066 C814.9,6072 815.3,6078 815.8,6084 C816.3,6090 816.7,6096 817.2,6102 C817.7,6108 818.1,6114 818.6,6120 C819.1,6126 819.5,6132 820,6138 C820.5,6144 820.9,6150 821.4,6156 C821.9,6162 822.3,6168 822.8,6174 C823.3,6180 823.7,6186 824.2,6192 C824.7,6198 825.1,6204 825.6,6210 C826.1,6216 826.5,6222 827,6228 C827.5,6234 827.9,6240 828.4,6246 C828.9,6252 829.3,6258 829.8,6264 C830.3,6270 830.7,6276 831.2,6282 C831.7,6288 832.1,6294 832.6,6300 C833.1,6306 833.5,6312 834,6318 C834.5,6324 834.9,6330 835.4,6336 C835.9,6342 836.3,6348 836.8,6354 C837.3,6360 837.7,6366 838.2,6372 C838.7,6378 839.1,6384 839.6,6390 C840.1,6396 840.5,6402 841,6408 C841.5,6414 841.9,6420 842.4,6426 C842.9,6432 843.3,6438 843.8,6444 C844.3,6450 844.7,6456 845.2,6462 C845.7,6468 846.1,6474 846.6,6480 C847.1,6486 847.5,6492 848,6498 C848.5,6504 848.9,6510 849.4,6516 C849.9,6522 850.3,6528 850.8,6534 C851.3,6540 851.7,6546 852.2,6552 C852.7,6558 853.1,6564 853.6,6570 C854.1,6576 854.5,6582 855,6588 C855.5,6594 855.9,6600 856.4,6606 C856.9,6612 857.3,6618 857.8,6624 C858.3,6630 858.7,6636 859.2,6642 C859.7,6648 860.1,6654 860.6,6660 C861.1,6666 861.5,6672 862,6678 C862.5,6684 862.9,6690 863.4,6696 C863.9,6702 864.3,6708 864.8,6714 C865.3,6720 865.7,6726 866.2,6732 C866.7,6738 867.1,6744 867.6,6750 C868.1,6756 868.5,6762 869,6768 C869.5,6774 869.9,6780 870.4,6786 C870.9,6792 871.3,6798 871.8,6804 C872.3,6810 872.7,6816 873.2,6822 C873.7,6828 874.1,6834 874.6,6840 C875.1,6846 875.5,6852 876,6858 C876.5,6864 876.9,6870 877.4,6876 C877.9,6882 878.3,6888 878.8,6894 C879.3,6900 879.7,6906 880.2,6912 C880.7,6918 881.1,6924 881.6,6930 C882.1,6936 882.5,6942 883,6948 C883.5,6954 883.9,6960 884.4,6966 C884.9,6972 885.3,6978 885.8,6984 C886.3,6990 886.7,6996 887.2,7002 C887.7,7008 888.1,7014 888.6,7020 C889.1,7026 889.5,7032 890,7038 C890.5,7044 890.9,7050 891.4,7056 C891.9,7062 892.3,7068 892.8,7074 C893.3,7080 893.7,7086 894.2,7092 C894.7,7098 895.1,7104 895.6,7110 C896.1,7116 896.5,7122 897,7128 C897.5,7134 897.9,7140 898.4,7146 C898.9,7152 899.3,7158 899.8,7164 C900.3,7170 900.7,7176 901.2,7182 C901.7,7188 902.1,7194 902.6,7200 C903.1,7206 903.5,7212 904,7218 C904.5,7224 904.9,7230 905.4,7236 C905.9,7242 906.3,7248 906.8,7254 C907.3,7260 907.7,7266 908.2,7272 C908.7,7278 909.1,7284 909.6,7290 C910.1,7296 910.5,7302 911,7308 C911.5,7314 911.9,7320 912.4,7326 C912.9,7332 913.3,7338 913.8,7344 C914.3,7350 914.7,7356 915.2,7362 C915.7,7368 916.1,7374 916.6,7380 C917.1,7386 917.5,7392 918,7398 C918.5,7404 918.9,7410 919.4,7416 C919.9,7422 920.3,7428 920.8,7434 C921.3,7440 921.7,7446 922.2,7452 C922.7,7458 923.1,7464 923.6,7470 C924.1,7476 924.5,7482 925,7488 C925.5,7494 925.9,7500 926.4,7506 C926.9,7512 927.3,7518 927.8,7524 C928.3,7530 928.7,7536 929.2,7542 C929.7,7548 930.1,7554 930.6,7560 C931.1,7566 931.5,7572 932,7578 C932.5,7584 932.9,7590 933.4,7596 C933.9,7602 934.3,7608 934.8,7614 C935.3,7620 935.7,7626 936.2,7632 C936.7,7638 937.1,7644 937.6,7650 C938.1,7656 938.5,7662 939,7668 C939.5,7674 939.9,7680 940.4,7686 C940.9,7692 941.3,7698 941.8,7704 C942.3,7710 942.7,7716 943.2,7722 C943.7,7728 944.1,7734 944.6,7740 C945.1,7746 945.5,7752 946,7758 C946.5,7764 946.9,7770 947.4,7776 C947.9,7782 948.3,7788 948.8,7794 C949.3,7800 949.7,7806 950.2,7812 C950.7,7818 951.1,7824 951.6,7830 C952.1,7836 952.5,7842 953,7848 C953.5,7854 953.9,7860 954.4,7866 C954.9,7872 955.3,7878 955.8,7884 C956.3,7890 956.7,7896 957.2,7902 C957.7,7908 958.1,7914 958.6,7920 C959.1,7926 959.5,7932 960,7938 C960.5,7944 960.9,7950 961.4,7956 C961.9,7962 962.3,7968 962.8,7974 C963.3,7980 963.7,7986 964.2,7992 C964.7,7998 965.1,8004 965.6,8010 C966.1,8016 966.5,8022 967,8028 C967.5,8034 967.9,8040 968.4,8046 C968.9,8052 969.3,8058 969.8,8064 C970.3,8070 970.7,8076 971.2,8082 C971.7,8088 972.1,8094 972.6,8100 C973.1,8106 973.5,8112 974,8118 C974.5,8124 974.9,8130 975.4,8136 C975.9,8142 976.3,8148 976.8,8154 C977.3,8160 977.7,8166 978.2,8172 C978.7,8178 979.1,8184 979.6,8190 C980.1,8196 980.5,8202 981,8208 C981.5,8214 981.9,8220 982.4,8226 C982.9,8232 983.3,8238 983.8,8244 C984.3,8250 984.7,8256 985.2,8262 C985.7,8268 986.1,8274 986.6,8280 C987.1,8286 987.5,8292 988,8298 C988.5,8304 988.9,8310 989.4,8316 C989.9,8322 990.3,8328 990.8,8334 C991.3,8340 991.7,8346 992.2,8352 C992.7,8358 993.1,8364 993.6,8370 C994.1,8376 994.5,8382 995,8388 C995.5,8394 995.9,8400 996.4,8406 C996.9,8412 997.3,8418 997.8,8424 C998.3,8430 998.7,8436 999.2,8442 C999.7,8448 1000.1,8454 1000.6,8460 C1001.1,8466 1001.5,8472 1002,8478 C1002.5,8484 1002.9,8490 1003.4,8496 C1003.9,8502 1004.3,8508 1004.8,8514 C1005.3,8520 1005.7,8526 1006.2,8532 C1006.7,8538 1007.1,8544 1007.6,8550 C1008.1,8556 1008.5,8562 1009,8568 C1009.5,8574 1009.9,8580 1010.4,8586 C1010.9,8592 1011.3,8598 1011.8,8604 C1012.3,8610 1012.7,8616 1013.2,8622 C1013.7,8628 1014.1,8634 1014.6,8640 C1015.1,8646 1015.5,8652 1016,8658 C1016.5,8664 1016.9,8670 1017.4,8676 C1017.9,8682 1018.3,8688 1018.8,8694 C1019.3,8700 1019.7,8706 1020.2,8712 C1020.7,8718 1021.1,8724 1021.6,8730 C1022.1,8736 1022.5,8742 1023,8748 C1023.5,8754 1023.9,8760 1024.4,8766 C1024.9,8772 1025.3,8778 1025.8,8784 C1026.3,8790 1026.7,8796 1027.2,8802 C1027.7,8808 1028.1,8814 1028.6,8820 C1029.1,8826 1029.5,8832 1030,8838 C1030.5,8844 1030.9,8850 1031.4,8856 C1031.9,8862 1032.3,8868 1032.8,8874 C1033.3,8880 1033.7,8886 1034.2,8892 C1034.7,8898 1035.1,8904 1035.6,8910 C1036.1,8916 1036.5,8922 1037,8928 C1037.5,8934 1037.9,8940 1038.4,8946 C1038.9,8952 1039.3,8958 1039.8,8964 C1040.3,8970 1040.7,8976 1041.2,8982 C1041.7,8988 1042.1,8994 1042.6,9000 C1043.1,9006 1043.5,9012 1044,9018 C1044.5,9024 1044.9,9030 1045.4,9036 C1045.9,9042 1046.3,9048 1046.8,9054 C1047.3,9060 1047.7,9066 1048.2,9072 C1048.7,9078 1049.1,9084 1049.6,9090 C1050.1,9096 1050.5,9102 1051,9108 C1051.5,9114 1051.9,9120 1052.4,9126 C1052.9,9132 1053.3,9138 1053.8,9144 C1054.3,9150 1054.7,9156 1055.2,9162 C1055.7,9168 1056.1,9174 1056.6,9180 C1057.1,9186 1057.5,9192 1058,9198 C1058.5,9204 1058.9,9210 1059.4,9216 C1059.9,9222 1060.3,9228 1060.8,9234 C1061.3,9240 1061.7,9246 1062.2,9252 C1062.7,9258 1063.1,9264 1063.6,9270 C1064.1,9276 1064.5,9282 1065,9288 C1065.5,9294 1065.9,9300 1066.4,9306 C1066.9,9312 1067.3,9318 1067.8,9324 C1068.3,9330 1068.7,9336 1069.2,9342 C1069.7,9348 1070.1,9354 1070.6,9360 C1071.1,9366 1071.5,9372 1072,9378 C1072.5,9384 1072.9,9390 1073.4,9396 C1073.9,9402 1074.3,9408 1074.8,9414 C1075.3,9420 1075.7,9426 1076.2,9432 C1076.7,9438 1077.1,9444 1077.6,9450 C1078.1,9456 1078.5,9462 1079,9468 C1079.5,9474 1079.9,9480 1080.4,9486 C1080.9,9492 1081.3,9498 1081.8,9504 C1082.3,9510 1082.7,9516 1083.2,9522 C1083.7,9528 1084.1,9534 1084.6,9540 C1085.1,9546 1085.5,9552 1086,9558 C1086.5,9564 1086.9,9570 1087.4,9576 C1087.9,9582 1088.3,9588 1088.8,9594 C1089.3,9600 1089.7,9606 1090.2,9612 C1090.7,9618 1091.1,9624 1091.6,9630 C1092.1,9636 1092.5,9642 1093,9648 C1093.5,9654 1093.9,9660 1094.4,9666 C1094.9,9672 1095.3,9678 1095.8,9684 C1096.3,9690 1096.7,9696 1097.2,9702 C1097.7,9708 1098.1,9714 1098.6,9720 C1099.1,9726 1099.5,9732 1100,9738 C1100.5,9744 1100.9,9750 1101.4,9756 C1101.9,9762 1102.3,9768 1102.8,9774 C1103.3,9780 1103.7,9786 1104.2,9792 C1104.7,9798 1105.1,9804 1105.6,9810 C1106.1,9816 1106.5,9822 1107,9828 C1107.5,9834 1107.9,9840 1108.4,9846 C1108.9,9852 1109.3,9858 1109.8,9864 C1110.3,9870 1110.7,9876 1111.2,9882 C1111.7,9888 1112.1,9894 1112.6,9900 C1113.1,9906 1113.5,9912 1114,9918 C1114.5,9924 1114.9,9930 1115.4,9936 C1115.9,9942 1116.3,9948 1116.8,9954 C1117.3,9960 1117.7,9966 1118.2,9972 C1118.7,9978 1119.1,9984 1119.6,9990 C1120.1,9996 1120.5,10002 1121,10008 C1121.5,10014 1121.9,10020 1122.4,10026 C1122.9,10032 1123.3,10038 1123.8,10044 C1124.3,10050 1124.7,10056 1125.2,10062 C1125.7,10068 1126.1,10074 1126.6,10080 C1127.1,10086 1127.5,10092 1128,10098 C1128.5,10104 1128.9,10110 1129.4,10116 C1129.9,10122 1130.3,10128 1130.8,10134 C1131.3,10140 1131.7,10146 1132.2,10152 C1132.7,10158 1133.1,10164 1133.6,10170 C1134.1,10176 1134.5,10182 1135,10188 C1135.5,10194 1135.9,10200 1136.4,10206 C1136.9,10212 1137.3,10218 1137.8,10224 C1138.3,10230 1138.7,10236 1139.2,10242 C1139.7,10248 1140.1,10254 1140.6,10260 C1141.1,10266 1141.5,10272 1142,10278 C1142.5,10284 1142.9,10290 1143.4,10296 C1143.9,10302 1144.3,10308 1144.8,10314 C1145.3,10320 1145.7,10326 1146.2,10332 C1146.7,10338 1147.1,10344 1147.6,10350 C1148.1,10356 1148.5,10362 1149,10368 C1149.5,10374 1149.9,10380 1150.4,10386 C1150.9,10392 1151.3,10398 1151.8,10404 C1152.3,10410 1152.7,10416 1153.2,10422 C1153.7,10428 1154.1,10434 1154.6,10440 C1155.1,10446 1155.5,10452 1156,10458 C1156.5,10464 1156.9,10470 1157.4,10476 C1157.9,10482 1158.3,10488 1158.8,10494 C1159.3,10500 1159.7,10506 1160.2,10512 C1160.7,10518 1161.1,10524 1161.6,10530 C1162.1,10536 1162.5,10542 1163,10548 C1163.5,10554 1163.9,10560 1164.4,10566 C1164.9,10572 1165.3,10578 1165.8,10584 C1166.3,10590 1166.7,10596 1167.2,10602 C1167.7,10608 1168.1,10614 1168.6,10620 C1169.1,10626 1169.5,10632 1170,10638 C1170.5,10644 1170.9,10650 1171.4,10656 C1171.9,10662 1172.3,10668 1172.8,10674 C1173.3,10680 1173.7,10686 1174.2,10692 C1174.7,10698 1175.1,10704 1175.6,10710 C1176.1,10716 1176.5,10722 1177,10728 C1177.5,10734 1177.9,10740 1178.4,10746 C1178.9,10752 1179.3,10758 1179.8,10764 C1180.3,10770 1180.7,10776 1181.2,10782 C1181.7,10788 1182.1,10794 1182.6,10800 C1183.1,10806 1183.5,10812 1184,10818 C1184.5,10824 1184.9,10830 1185.4,10836 C1185.9,10842 1186.3,10848 1186.8,10854 C1187.3,10860 1187.7,10866 1188.2,10872 C1188.7,10878 1189.1,10884 1189.6,10890 C1190.1,10896 1190.5,10902 1191,10908 C1191.5,10914 1191.9,10920 1192.4,10926 C1192.9,10932 1193.3,10938 1193.8,10944 C1194.3,10950 1194.7,10956 1195.2,10962 C1195.7,10968 1196.1,10974 1196.6,10980 C1197.1,10986 1197.5,10992 1198,10998 C1198.5,11004 1198.9,11010 1199.4,11016 C1199.9,11022 1200.3,11028 1200.8,11034 C1201.3,11040 1201.7,11046 1202.2,11052 C1202.7,11058 1203.1,11064 1203.6,11070 C1204.1,11076 1204.5,11082 1205,11088 C1205.5,11094 1205.9,11100 1206.4,11106 C1206.9,11112 1207.3,11118 1207.8,11124 C1208.3,11130 1208.7,11136 1209.2,11142 C1209.7,11148 1210.1,11154 1210.6,11160 C1211.1,11166 1211.5,11172 1212,11178 C1212.5,11184 1212.9,11190 1213.4,11196 C1213.9,11202 1214.3,11208 1214.8,11214 C1215.3,11220 1215.7,11226 1216.2,11232 C1216.7,11238 1217.1,11244 1217.6,11250 C1218.1,11256 1218.5,11262 1219,11268 C1219.5,11274 1219.9,11280 1220.4,11286 C1220.9,11292 1221.3,11298 1221.8,11304 C1222.3,11310 1222.7,11316 1223.2,11322 C1223.7,11328 1224.1,11334 1224.6,11340 C1225.1,11346 1225.5,11352 1226,11358 C1226.5,11364 1226.9,11370 1227.4,11376 C1227.9,11382 1228.3,11388 1228.8,11394 C1229.3,11400 1229.7,11406 1230.2,11412 C1230.7,11418 1231.1,11424 1231.6,11430 C1232.1,11436 1232.5,11442 1233,11448 C1233.5,11454 1233.9,11460 1234.4,11466 C1234.9,11472 1235.3,11478 1235.8,11484 C1236.3,11490 1236.7,11496 1237.2,11502 C1237.7,11508 1238.1,11514 1238.6,11520 C1239.1,11526 1239.5,11532 1240,11538 C1240.5,11544 1240.9,11550 1241.4,11556 C1241.9,11562 1242.3,11568 1242.8,11574 C1243.3,11580 1243.7,11586 1244.2,11592 C1244.7,11598 1245.1,11604 1245.6,11610 C1246.1,11616 1246.5,11622 1247,11628 C1247.5,11634 1247.9,11640 1248.4,11646 C1248.9,11652 1249.3,11658 1249.8,11664 C1250.3,11670 1250.7,11676 1251.2,11682 C1251.7,11688 1252.1,11694 1252.6,11700 C1253.1,11706 1253.5,11712 1254,11718 C1254.5,11724 1254.9,11730 1255.4,11736 C1255.9,11742 1256.3,11748 1256.8,11754 C1257.3,11760 1257.7,11766 1258.2,11772 C1258.7,11778 1259.1,11784 1259.6,11790 C1260.1,11796 1260.5,11802 1261,11808 C1261.5,11814 1261.9,11820 1262.4,11826 C1262.9,11832 1263.3,11838 1263.8,11844 C1264.3,11850 1264.7,11856 1265.2,11862 C1265.7,11868 1266.1,11874 1266.6,11880 C1267.1,11886 1267.5,11892 1268,11898 C1268.5,11904 1268.9,11910 1269.4,11916 C1269.9,11922 1270.3,11928 1270.8,11934 C1271.3,11940 1271.7,11946 1272.2,11952 C1272.7,11958 1273.1,11964 1273.6,11970 C1274.1,11976 1274.5,11982 1275,11988 C1275.5,11994 1275.9,12000 1276.4,12006 C1276.9,12012 1277.3,12018 1277.8,12024 C1278.3,12030 1278.7,12036 1279.2,12042 C1279.7,12048 1280.1,12054 1280.6,12060 C1281.1,12066 1281.5,12072 1282,12078 C1282.5,12084 1282.9,12090 1283.4,12096 C1283.9,12102 1284.3,12108 1284.8,12114 C1285.3,12120 1285.7,12126 1286.2,12132 C1286.7,12138 1287.1,12144 1287.6,12150 C1288.1,12156 1288.5,12162 1289,12168 C1289.5,12174 1289.9,12180 1290.4,12186 C1290.9,12192 1291.3,12198 1291.8,12204 C1292.3,12210 1292.7,12216 1293.2,12222 C1293.7,12228 1294.1,12234 1294.6,12240 C1295.1,12246 1295.5,12252 1296,12258 C1296.5,12264 1296.9,12270 1297.4,12276 C1297.9,12282 1298.3,12288 1298.8,12294 C1299.3,12300 1299.7,12306 1300.2,12312 C1300.7,12318 1301.1,12324 1301.6,12330 C1302.1,12336 1302.5,12342 1303,12348 C1303.5,12354 1303.9,12360 1304.4,12366 C1304.9,12372 1305.3,12378 1305.8,12384 C1306.3,12390 1306.7,12396 1307.2,12402 C1307.7,12408 1308.1,12414 1308.6,12420 C1309.1,12426 1309.5,12432 1310,12438 C1310.5,12444 1310.9,12450 1311.4,12456 C1311.9,12462 1312.3,12468 1312.8,12474 C1313.3,12480 1313.7,12486 1314.2,12492 C1314.7,12498 1315.1,12504 1315.6,12510 C1316.1,12516 1316.5,12522 1317,12528 C1317.5,12534 1317.9,12540 1318.4,12546 C1318.9,12552 1319.3,12558 1319.8,12564 C1320.3,12570 1320.7,12576 1321.2,12582 C1321.7,12588 1322.1,12594 1322.6,12600 C1323.1,12606 1323.5,12612 1324,12618 C1324.5,12624 1324.9,12630 1325.4,12636 C1325.9,12642 1326.3,12648 1326.8,12654 C1327.3,12660 1327.7,12666 1328.2,12672 C1328.7,12678 1329.1,12684 1329.6,12690 C1330.1,12696 1330.5,12702 1331,12708 C1331.5,12714 1331.9,12720 1332.4,12726 C1332.9,12732 1333.3,12738 1333.8,12744 C1334.3,12750 1334.7,12756 1335.2,12762 C1335.7,12768 1336.1,12774 1336.6,12780 C1337.1,12786 1337.5,12792 1338,12798 C1338.5,12804 1338.9,12810 1339.4,12816 C1339.9,12822 1340.3,12828 1340.8,12834 C1341.3,12840 1341.7,12846 1342.2,12852 C1342.7,12858 1343.1,12864 1343.6,12870 C1344.1,12876 1344.5,12882 1345,12888 C1345.5,12894 1345.9,12900 1346.4,12906 C1346.9,12912 1347.3,12918 1347.8,12924 C1348.3,12930 1348.7,12936 1349.2,12942 C1349.7,12948 1350.1,12954 1350.6,12960 C1351.1,12966 1351.5,12972 1352,12978 C1352.5,12984 1352.9,12990 1353.4,12996 C1353.9,13002 1354.3,13008 1354.8,13014 C1355.3,13020 1355.7,13026 1356.2,13032 C1356.7,13038 1357.1,13044 1357.6,13050 C1358.1,13056 1358.5,13062 1359,13068 C1359.5,13074 1359.9,13080 1360.4,13086 C1360.9,13092 1361.3,13098 1361.8,13104 C1362.3,13110 1362.7,13116 1363.2,13122 C1363.7,13128 1364.1,13134 1364.6,13140 C1365.1,13146 1365.5,13152 1366,13158 C1366.5,13164 1366.9,13170 1367.4,13176 C1367.9,13182 1368.3,13188 1368.8,13194 C1369.3,13200 1369.7,13206 1370.2,13212 C1370.7,13218 1371.1,13224 1371.6,13230 C1372.1,13236 1372.5,13242 1373,13248 C1373.5,13254 1373.9,13260 1374.4,13266 C1374.9,13272 1375.3,13278 1375.8,13284 C1376.3,13290 1376.7,13296 1377.2,13302 C1377.7,13308 1378.1,13314 1378.6,13320 C1379.1,13326 1379.5,13332 1380,13338 C1380.5,13344 1380.9,13350 1381.4,13356 C1381.9,13362 1382.3,13368 1382.8,13374 C1383.3,13380 1383.7,13386 1384.2,13392 C1384.7,13398 1385.1,13404 1385.6,13410 C1386.1,13416 1386.5,13422 1387,13428 C1387.5,13434 1387.9,13440 1388.4,13446 C1388.9,13452 1389.3,13458 1389.8,13464 C1390.3,13470 1390.7,13476 1391.2,13482 C1391.7,13488 1392.1,13494 1392.6,13500 C1393.1,13506 1393.5,13512 1394,13518 C1394.5,13524 1394.9,13530 1395.4,13536 C1395.9,13542 1396.3,13548 1396.8,13554 C1397.3,13560 1397.7,13566 1398.2,13572 C1398.7,13578 1399.1,13584 1399.6,13590 C1400.1,13596 1400.5,13602 1401,13608 C1401.5,13614 1401.9,13620 1402.4,13626 C1402.9,13632 1403.3,13638 1403.8,13644 C1404.3,13650 1404.7,13656 1405.2,13662 C1405.7,13668 1406.1,13674 1406.6,13680 C1407.1,13686 1407.5,13692 1408,13698 C1408.5,13704 1408.9,13710 1409.4,13716 C1409.9,13722 1410.3,13728 1410.8,13734 C1411.3,13740 1411.7,13746 1412.2,13752 C1412.7,13758 1413.1,13764 1413.6,13770 C1414.1,13776 1414.5,13782 1415,13788 C1415.5,13794 1415.9,13800 1416.4,13806 C1416.9,13812 1417.3,13818 1417.8,13824 C1418.3,13830 1418.7,13836 1419.2,13842 C1419.7,13848 1420.1,13854 1420.6,13860 C1421.1,13866 1421.5,13872 1422,13878 C1422.5,13884 1422.9,13890 1423.4,13896 C1423.9,13902 1424.3,13908 1424.8,13914 C1425.3,13920 1425.7,13926 1426.2,13932 C1426.7,13938 1427.1,13944 1427.6,13950 C1428.1,13956 1428.5,13962 1429,13968 C1429.5,13974 1429.9,13980 1430.4,13986 C1430.9,13992 1431.3,13998 1431.8,14004 C1432.3,14010 1432.7,14016 1433.2,14022 C1433.7,14028 1434.1,14034 1434.6,14040 C1435.1,14046 1435.5,14052 1436,14058 C1436.5,14064 1436.9,14070 1437.4,14076 C1437.9,14082 1438.3,14088 1438.8,14094 C1439.3,14100 1439.7,14106 1440.2,14112 C1440.7,14118 1441.1,14124 1441.6,14130 C1442.1,14136 1442.5,14142 1443,14148 C1443.5,14154 1443.9,14160 1444.4,14166 C1444.9,14172 1445.3,14178 1445.8,14184 C1446.3,14190 1446.7,14196 1447.2,14202 C1447.7,14208 1448.1,14214 1448.6,14220 C1449.1,14226 1449.5,14232 1450,14238 C1450.5,14244 1450.9,14250 1451.4,14256 C1451.9,14262 1452.3,14268 1452.8,14274 C1453.3,14280 1453.7,14286 1454.2,14292 C1454.7,14298 1455.1,14304 1455.6,14310 C1456.1,14316 1456.5,14322 1457,14328 C1457.5,14334 1457.9,14340 1458.4,14346 C1458.9,14352 1459.3,14358 1459.8,14364 C1460.3,14370 1460.7,14376 1461.2,14382 C1461.7,14388 1462.1,14394 1462.6,14400 C1463.1,14406 1463.5,14412 1464,14418 C1464.5,14424 1464.9,14430 1465.4,14436 C1465.9,14442 1466.3,14448 1466.8,14454 C1467.3,14460 1467.7,14466 1468.2,14472 C1468.7,14478 1469.1,14484 1469.6,14490 C1470.1,14496 1470.5,14502 1471,14508 C1471.5,14514 1471.9,14520 1472.4,14526 C1472.9,14532 1473.3,14538 1473.8,14544 C1474.3,14550 1474.7,14556 1475.2,14562 C1475.7,14568 1476.1,14574 1476.6,14580 C1477.1,14586 1477.5,14592 1478,14598 C1478.5,14604 1478.9,14610 1479.4,14616 C1479.9,14622 1480.3,14628 1480.8,14634 C1481.3,14640 1481.7,14646 1482.2,14652 C1482.7,14658 1483.1,14664 1483.6,14670 C1484.1,14676 1484.5,14682 1485,14688 C1485.5,14694 1485.9,14700 1486.4,14706 C1486.9,14712 1487.3,14718 1487.8,14724 C1488.3,14730 1488.7,14736 1489.2,14742 C1489.7,14748 1490.1,14754 1490.6,14760 C1491.1,14766 1491.5,14772 1492,14778 C1492.5,14784 1492.9,14790 1493.4,14796 C1493.9,14802 1494.3,14808 1494.8,14814 C1495.3,14820 1495.7,14826 1496.2,14832 C1496.7,14838 1497.1,14844 1497.6,14850 C1498.1,14856 1498.5,14862 1499,14868 C1499.5,14874 1499.9,14880 1500.4,14886 C1500.9,14892 1501.3,14898 1501.8,14904 C1502.3,14910 1502.7,14916 1503.2,14922 C1503.7,14928 1504.1,14934 1504.6,14940 C1505.1,14946 1505.5,14952 1506,14958 C1506.5,14964 1506.9,14970 1507.4,14976 C1507.9,14982 1508.3,14988 1508.8,14994 C1509.3,15000 1509.7,15006 1510.2,15012 C1510.7,15018 1511.1,15024 1511.6,15030 C1512.1,15036 1512.5,15042 1513,15048 C1513.5,15054 1513.9,15060 1514.4,15066 C1514.9,15072 1515.3,15078 1515.8,15084 C1516.3,15090 1516.7,15096 1517.2,15102 C1517.7,15108 1518.1,15114 1518.6,15120 C1519.1,15126 1519.5,15132 1520,15138 C1520.5,15144 1520.9,15150 1521.4,15156 C1521.9,15162 1522.3,15168 1522.8,15174 C1523.3,15180 1523.7,15186 1524.2,15192 C1524.7,15198 1525.1,15204 1525.6,15210 C1526.1,15216 1526.5,15222 1527,15228 C1527.5,15234 1527.9,15240 1528.4,15246 C1528.9,15252 1529.3,15258 1529.8,15264 C1530.3,15270 1530.7,15276 1531.2,15282 C1531.7,15288 1532.1,15294 1532.6,15300 C1533.1,15306 1533.5,15312 1534,15318 C1534.5,15324 1534.9,15330 1535.4,15336 C1535.9,15342 1536.3,15348 1536.8,15354 C1537.3,15360 1537.7,15366 1538.2,15372 C1538.7,15378 1539.1,15384 1539.6,15390 C1540.1,15396 1540.5,15402 1541,15408 C1541.5,15414 1541.9,15420 1542.4,15426 C1542.9,15432 1543.3,15438 1543.8,15444 C1544.3,15450 1544.7,15456 1545.2,15462 C1545.7,15468 1546.1,15474 1546.6,15480 C1547.1,15486 1547.5,15492 1548,15498 C1548.5,15504 1548.9,15510 1549.4,15516 C1549.9,15522 1550.3,15528 1550.8,15534 C1551.3,15540 1551.7,15546 1552.2,15552 C1552.7,15558 1553.1,15564 1553.6,15570 C1554.1,15576 1554.5,15582 1555,15588 C1555.5,15594 1555.9,15600 1556.4,15606 C1556.9,15612 1557.3,15618 1557.8,15624 C1558.3,15630 1558.7,15636 1559.2,15642 C1559.7,15648 1560.1,15654 1560.6,15660 C1561.1,15666 1561.5,15672 1562,15678 C1562.5,15684 1562.9,15690 1563.4,15696 C1563.9,15702 1564.3,15708 1564.8,15714 C1565.3,15720 1565.7,15726 1566.2,15732 C1566.7,15738 1567.1,15744 1567.6,15750 C1568.1,15756 1568.5,15762 1569,15768 C1569.5,15774 1569.9,15780 1570.4,15786 C1570.9,15792 1571.3,15798 1571.8,15804 C1572.3,15810 1572.7,15816 1573.2,15822 C1573.7,15828 1574.1,15834 1574.6,15840 C1575.1,15846 1575.5,15852 1576,15858 C1576.5,15864 1576.9,15870 1577.4,15876 C1577.9,15882 1578.3,15888 1578.8,15894 C1579.3,15900 1579.7,15906 1580.2,15912 C1580.7,15918 1581.1,15924 1581.6,15930 C1582.1,15936 1582.5,15942 1583,15948 C1583.5,15954 1583.9,15960 1584.4,15966 C1584.9,15972 1585.3,15978 1585.8,15984 C1586.3,15990 1586.7,15996 1587.2,16002 C1587.7,16008 1588.1,16014 1588.6,16020 C1589.1,16026 1589.5,16032 1590,16038 C1590.5,16044 1590.9,16050 1591.4,16056 C1591.9,16062 1592.3,16068 1592.8,16074 C1593.3,16080 1593.7,16086 1594.2,16092 C1594.7,16098 1595.1,16104 1595.6,16110 C1596.1,16116 1596.5,16122 1597,16128 C1597.5,16134 1597.9,16140 1598.4,16146 C1598.9,16152 1599.3,16158 1599.8,16164 C1600.3,16170 1600.7,16176 1601.2,16182 C1601.7,16188 1602.1,16194 1602.6,16200 C1603.1,16206 1603.5,16212 1604,16218 C1604.5,16224 1604.9,16230 1605.4,16236 C1605.9,16242 1606.3,16248 1606.8,16254 C1607.3,16260 1607.7,16266 1608.2,16272 C1608.7,16278 1609.1,16284 1609.6,16290 C1610.1,16296 1610.5,16302 1611,16308 C1611.5,16314 1611.9,16320 1612.4,16326 C1612.9,16332 1613.3,16338 1613.8,16344 C1614.3,16350 1614.7,16356 1615.2,16362 C1615.7,16368 1616.1,16374 1616.6,16380 C1617.1,16386 1617.5,16392 1618,16398 C1618.5,16404 1618.9,16410 1619.4,16416 C1619.9,16422 1620.3,16428 1620.8,16434 C1621.3,16440 1621.7,16446 1622.2,16452 C1622.7,16458 1623.1,16464 1623.6,16470 C1624.1,16476 1624.5,16482 1625,16488 C1625.5,16494 1625.9,16500 1626.4,16506 C1626.9,16512 1627.3,16518 1627.8,16524 C1628.3,16530 1628.7,16536 1629.2,16542 C1629.7,16548 1630.1,16554 1630.6,16560 C1631.1,16566 1631.5,16572 1632,16578 C1632.5,16584 1632.9,16590 1633.4,16596 C1633.9,16602 1634.3,16608 1634.8,16614 C1635.3,16620 1635.7,16626 1636.2,16632 C1636.7,16638 1637.1,16644 1637.6,16650 C1638.1,16656 1638.5,16662 1639,16668 C1639.5,16674 1639.9,16680 1640.4,16686 C1640.9,16692 1641.3,16698 1641.8,16704 C1642.3,16710 1642.7,16716 1643.2,16722 C1643.7,16728 1644.1,16734 1644.6,16740 C1645.1,16746 1645.5,16752 1646,16758 C1646.5,16764 1646.9,16770 1647.4,16776 C1647.9,16782 1648.3,16788 1648.8,16794 C1649.3,16800 1649.7,16806 1650.2,16812 C1650.7,16818 1651.1,16824 1651.6,16830 C1652.1,16836 1652.5,16842 1653,16848 C1653.5,16854 1653.9,16860 1654.4,16866 C1654.9,16872 1655.3,16878 1655.8,16884 C1656.3,16890 1656.7,16896 1657.2,16902 C1657.7,16908 1658.1,16914 1658.6,16920 C1659.1,16926 1659.5,16932 1660,16938 C1660.5,16944 1660.9,16950 1661.4,16956 C1661.9,16962 1662.3,16968 1662.8,16974 C1663.3,16980 1663.7,16986 1664.2,16992 C1664.7,16998 1665.1,17004 1665.6,17010 C1666.1,17016 1666.5,17022 1667,17028 C1667.5,17034 1667.9,17040 1668.4,17046 C1668.9,17052 1669.3,17058 1669.8,17064 C1670.3,17070 1670.7,17076 1671.2,17082 C1671.7,17088 1672.1,17094 1672.6,17100 C1673.1,17106 1673.5,17112 1674,17118 C1674.5,17124 1674.9,17130 1675.4,17136 C1675.9,17142 1676.3,17148 1676.8,17154 C1677.3,17160 1677.7,17166 1678.2,17172 C1678.7,17178 1679.1,17184 1679.6,17190 C1680.1,17196 1680.5,17202 1681,17208 C1681.5,17214 1681.9,17220 1682.4,17226 C1682.9,17232 1683.3,17238 1683.8,17244 C1684.3,17250 1684.7,17256 1685.2,17262 C1685.7,17268 1686.1,17274 1686.6,17280 C1687.1,17286 1687.5,17292 1688,17298 C1688.5,17304 1688.9,17310 1689.4,17316 C1689.9,17322 1690.3,17328 1690.8,17334 C1691.3,17340 1691.7,17346 1692.2,17352 C1692.7,17358 1693.1,17364 1693.6,17370 C1694.1,17376 1694.5,17382 1695,17388 C1695.5,17394 1695.9,17400 1696.4,17406 C1696.9,17412 1697.3,17418 1697.8,17424 C1698.3,17430 1698.7,17436 1699.2,17442 C1699.7,17448 1700.1,17454 1700.6,17460 C1701.1,17466 1701.5,17472 1702,17478 C1702.5,17484 1702.9,17490 1703.4,17496 C1703.9,17502 1704.3,17508 1704.8,17514 C1705.3,17520 1705.7,17526 1706.2,17532 C1706.7,17538 1707.1,17544 1707.6,17550 C1708.1,17556 1708.5,17562 1709,17568 C1709.5,17574 1709.9,17580 1710.4,17586 C1710.9,17592 1711.3,17598 1711.8,17604 C1712.3,17610 1712.7,17616 1713.2,17622 C1713.7,17628 1714.1,17634 1714.6,17640 C1715.1,17646 1715.5,17652 1716,17658 C1716.5,17664 1716.9,17670 1717.4,17676 C1717.9,17682 1718.3,17688 1718.8,17694 C1719.3,17700 1719.7,17706 1720.2,17712 C1720.7,17718 1721.1,17724 1721.6,17730 C1722.1,17736 1722.5,17742 1723,17748 C1723.5,17754 1723.9,17760 1724.4,17766 C1724.9,17772 1725.3,17778 1725.8,17784 C1726.3,17790 1726.7,17796 1727.2,17802 C1727.7,17808 1728.1,17814 1728.6,17820 C1729.1,17826 1729.5,17832 1730,17838 C1730.5,17844 1730.9,17850 1731.4,17856 C1731.9,17862 1732.3,17868 1732.8,17874 C1733.3,17880 1733.7,17886 1734.2,17892 C1734.7,17898 1735.1,17904 1735.6,17910 C1736.1,17916 1736.5,17922 1737,17928 C1737.5,17934 1737.9,17940 1738.4,17946 C1738.9,17952 1739.3,17958 1739.8,17964 C1740.3,17970 1740.7,17976 1741.2,17982 C1741.7,17988 1742.1,17994 1742.6,18000 C1743.1,18006 1743.5,18012 1744,18018 C1744.5,18024 1744.9,18030 1745.4,18036 C1745.9,18042 1746.3,18048 1746.8,18054 C1747.3,18060 1747.7,18066 1748.2,18072 C1748.7,18078 1749.1,18084 1749.6,18090 C1750.1,18096 1750.5,18102 1751,18108 C1751.5,18114 1751.9,18120 1752.4,18126 C1752.9,18132 1753.3,18138 1753.8,18144 C1754.3,18150 1754.7,18156 1755.2,18162 C1755.7,18168 1756.1,18174 1756.6,18180 C1757.1,18186 1757.5,18192 1758,18198 C1758.5,18204 1758.9,18210 1759.4,18216 C1759.9,18222 1760.3,18228 1760.8,18234 C1761.3,18240 1761.7,18246 1762.2,18252 C1762.7,18258 1763.1,18264 1763.6,18270 C1764.1,18276 1764.5,18282 1765,18288 C1765.5,18294 1765.9,18300 1766.4,18306 C1766.9,18312 1767.3,18318 1767.8,18324 C1768.3,18330 1768.7,18336 1769.2,18342 C1769.7,18348 1770.1,18354 1770.6,18360 C1771.1,18366 1771.5,18372 1772,18378 C1772.5,18384 1772.9,18390 1773.4,18396 C1773.9,18402 1774.3,18408 1774.8,18414 C1775.3,18420 1775.7,18426 1776.2,18432 C1776.7,18438 1777.1,18444 1777.6,18450 C1778.1,18456 1778.5,18462 1779,18468 C1779.5,18474 1779.9,18480 1780.4,18486 C1780.9,18492 1781.3,18498 1781.8,18504 C1782.3,18510 1782.7,18516 1783.2,18522 C1783.7,18528 1784.1,18534 1784.6,18540 C1785.1,18546 1785.5,18552 1786,18558 C1786.5,18564 1786.9,18570 1787.4,18576 C1787.9,18582 1788.3,18588 1788.8,18594 C1789.3,18600 1789.7,18606 1790.2,18612 C1790.7,18618 1791.1,18624 1791.6,18630 C1792.1,18636 1792.5,18642 1793,18648 C1793.5,18654 1793.9,18660 1794.4,18666 C1794.9,18672 1795.3,18678 1795.8,18684 C1796.3,18690 1796.7,18696 1797.2,18702 C1797.7,18708 1798.1,18714 1798.6,18720 C1799.1,18726 1799.5,18732 1800,18738 C1800.5,18744 1800.9,18750 1801.4,18756 C1801.9,18762 1802.3,18768 1802.8,18774 C1803.3,18780 1803.7,18786 1804.2,18792 C1804.7,18798 1805.1,18804 1805.6,18810 C1806.1,18816 1806.5,18822 1807,18828 C1807.5,18834 1807.9,18840 1808.4,18846 C1808.9,18852 1809.3,18858 1809.8,18864 C1810.3,18870 1810.7,18876 1811.2,18882 C1811.7,18888 1812.1,18894 1812.6,18900 C1813.1,18906 1813.5,18912 1814,18918 C1814.5,18924 1814.9,18930 1815.4,18936 C1815.9,18942 1816.3,18948 1816.8,18954 C1817.3,18960 1817.7,18966 1818.2,18972 C1818.7,18978 1819.1,18984 1819.6,18990 C1820.1,18996 1820.5,19002 1821,19008 C1821.5,19014 1821.9,19020 1822.4,19026 C1822.9,19032 1823.3,19038 1823.8,19044 C1824.3,19050 1824.7,19056 1825.2,19062 C1825.7,19068 1826.1,19074 1826.6,19080 C1827.1,19086 1827.5,19092 1828,19098 C1828.5,19104 1828.9,19110 1829.4,19116 C1829.9,19122 1830.3,19128 1830.8,19134 C1831.3,19140 1831.7,19146 1832.2,19152 C1832.7,19158 1833.1,19164 1833.6,19170 C1834.1,19176 1834.5,19182 1835,19188 C1835.5,19194 1835.9,19200 1836.4,19206 C1836.9,19212 1837.3,19218 1837.8,19224 C1838.3,19230 1838.7,19236 1839.2,19242 C1839.7,19248 1840.1,19254 1840.6,19260 C1841.1,19266 1841.5,19272 1842,19278 C1842.5,19284 1842.9,19290 1843.4,19296 C1843.9,19302 1844.3,19308 1844.8,19314 C1845.3,19320 1845.7,19326 1846.2,19332 C1846.7,19338 1847.1,19344 1847.6,19350 C1848.1,19356 1848.5,19362 1849,19368 C1849.5,19374 1849.9,19380 1850.4,19386 C1850.9,19392 1851.3,19398 1851.8,19404 C1852.3,19410 1852.7,19416 1853.2,19422 C1853.7,19428 1854.1,19434 1854.6,19440 C1855.1,19446 1855.5,19452 1856,19458 C1856.5,19464 1856.9,19470 1857.4,19476 C1857.9,19482 1858.3,19488 1858.8,19494 C1859.3,19500 1859.7,19506 1860.2,19512 C1860.7,19518 1861.1,19524 1861.6,19530 C1862.1,19536 1862.5,19542 1863,19548 C1863.5,19554 1863.9,19560 1864.4,19566 C1864.9,19572 1865.3,19578 1865.8,19584 C1866.3,19590 1866.7,19596 1867.2,19602 C1867.7,19608 1868.1,19614 1868.6,19620 C1869.1,19626 1869.5,19632 1870,19638 C1870.5,19644 1870.9,19650 1871.4,19656 C1871.9,19662 1872.3,19668 1872.8,19674 C1873.3,19680 1873.7,19686 1874.2,19692 C1874.7,19698 1875.1,19704 1875.6,19710 C1876.1,19716 1876.5,19722 1877,19728 C1877.5,19734 1877.9,19740 1878.4,19746 C1878.9,19752 1879.3,19758 1879.8,19764 C1880.3,19770 1880.7,19776 1881.2,19782 C1881.7,19788 1882.1,19794 1882.6,19800 C1883.1,19806 1883.5,19812 1884,19818 C1884.5,19824 1884.9,19830 1885.4,19836 C1885.9,19842 1886.3,19848 1886.8,19854 C1887.3,19860 1887.7,19866 1888.2,19872 C1888.7,19878 1889.1,19884 1889.6,19890 C1890.1,19896 1890.5,19902 1891,19908 C1891.5,19914 1891.9,19920 1892.4,19926 C1892.9,19932 1893.3,19938 1893.8,19944 C1894.3,19950 1894.7,19956 1895.2,19962 C1895.7,19968 1896.1,19974 1896.6,19980 C1897.1,19986 1897.5,19992 1898,19998 C1898.5,20004 1898.9,20010 1899.4,20016 C1899.9,20022 1900.3,20028 1900.8,20034 C1901.3,20040 1901.7,20046 1902.2,20052 C1902.7,20058 1903.1,20064 1903.6,20070 C1904.1,20076 1904.5,20082 1905,20088 C1905.5,20094 1905.9,20100 1906.4,20106 C1906.9,20112 1907.3,20118 1907.8,20124 C1908.3,20130 1908.7,20136 1909.2,20142 C1909.7,20148 1910.1,20154 1910.6,20160 C1911.1,20166 1911.5,20172 1912,20178 C1912.5,20184 1912.9,20190 1913.4,20196 C1913.9,20202 1914.3,20208 1914.8,20214 C1915.3,20220 1915.7,20226 1916.2,20232 C1916.7,20238 1917.1,20244 1917.6,20250 C1918.1,20256 1918.5,20262 1919,20268 C1919.5,20274 1919.9,20280 1920.4,20286 C1920.9,20292 1921.3,20298 1921.8,20304 C1922.3,20310 1922.7,20316 1923.2,20322 C1923.7,20328 1924.1,20334 1924.6,20340 C1925.1,20346 1925.5,20352 1926,20358 C1926.5,20364 1926.9,20370 1927.4,20376 C1927.9,20382 1928.3,20388 1928.8,20394 C1929.3,20400 1929.7,20406 1930.2,20412 C1930.7,20418 1931.1,20424 1931.6,20430 C1932.1,20436 1932.5,20442 1933,20448 C1933.5,20454 1933.9,20460 1934.4,20466 C1934.9,20472 1935.3,20478 1935.8,20484 C1936.3,20490 1936.7,20496 1937.2,20502 C1937.7,20508 1938.1,20514 1938.6,20520 C1939.1,20526 1939.5,20532 1940,20538 C1940.5,20544 1940.9,20550 1941.4,20556 C1941.9,20562 1942.3,20568 1942.8,20574 C1943.3,20580 1943.7,20586 1944.2,20592 C1944.7,20598 1945.1,20604 1945.6,20610 C1946.1,20616 1946.5,20622 1947,20628 C1947.5,20634 1947.9,20640 1948.4,20646 C1948.9,20652 1949.3,20658 1949.8,20664 C1950.3,20670 1950.7,20676 1951.2,20682 C1951.7,20688 1952.1,20694 1952.6,20700 C1953.1,20706 1953.5,20712 1954,20718 C1954.5,20724 1954.9,20730 1955.4,20736 C1955.9,20742 1956.3,20748 1956.8,20754 C1957.3,20760 1957.7,20766 1958.2,20772 C1958.7,20778 1959.1,20784 1959.6,20790 C1960.1,20796 1960.5,20802 1961,20808 C1961.5,20814 1961.9,20820 1962.4,20826 C1962.9,20832 1963.3,20838 1963.8,20844 C1964.3,20850 1964.7,20856 1965.2,20862 C1965.7,20868 1966.1,20874 1966.6,20880 C1967.1,20886 1967.5,20892 1968,20898 C1968.5,20904 1968.9,20910 1969.4,20916 C1969.9,20922 1970.3,20928 1970.8,20934 C1971.3,20940 1971.7,20946 1972.2,20952 C1972.7,20958 1973.1,20964 1973.6,20970 C1974.1,20976 1974.5,20982 1975,20988 C1975.5,20994 1975.9,21000 1976.4,21006 C1976.9,21012 1977.3,21018 1977.8,21024 C1978.3,21030 1978.7,21036 1979.2,21042 C1979.7,21048 1980.1,21054 1980.6,21060 C1981.1,21066 1981.5,21072 1982,21078 C1982.5,21084 1982.9,21090 1983.4,21096 C1983.9,21102 1984.3,21108 1984.8,21114 C1985.3,21120 1985.7,21126 1986.2,21132 C1986.7,21138 1987.1,21144 1987.6,21150 C1988.1,21156 1988.5,21162 1989,21168 C1989.5,21174 1989.9,21180 1990.4,21186 C1990.9,21192 1991.3,21198 1991.8,21204 C1992.3,21210 1992.7,21216 1993.2,21222 C1993.7,21228 1994.1,21234 1994.6,21240 C1995.1,21246 1995.5,21252 1996,21258 C1996.5,21264 1996.9,21270 1997.4,21276 C1997.9,21282 1998.3,21288 1998.8,21294 C1999.3,21300 1999.7,21306 2000.2,21312 C2000.7,21318 2001.1,21324 2001.6,21330"
        stroke="#004E64" strokeWidth="2" fill="none" />
  
  <style>
    @keyframes pulse {
      0% { transform: scale(1); opacity: 0.7; }
      50% { transform: scale(1.2); opacity: 0.5; }
      100% { transform: scale(1); opacity: 0.7; }
    }
  </style>
</svg>