<?xml version="1.0" encoding="UTF-8"?>
<svg width="800" height="1000" viewBox="0 0 800 1000" fill="none" xmlns="http://www.w3.org/2000/svg">
  <path d="M427.5 64.5C427.5 64.5 440 67.5 442 70.5C444 73.5 448 78 450.5 80.5C453 83 458 88 459.5 91C461 94 465 98.5 466 101.5C467 104.5 470.5 110 471.5 114C472.5 118 477.5 124 478 128C478.5 132 479.5 139 480 142.5C480.5 146 483 151.5 483 155C483 158.5 483 166 483 169.5C483 173 483 179 482.5 182.5C482 186 482 190.5 481 193.5C480 196.5 478 201.5 476.5 204.5C475 207.5 472 212.5 470 215C468 217.5 467 219 465 222C463 225 459.5 229 456.5 232C453.5 235 449 239.5 446 242C443 244.5 438.5 248 434.5 250.5C430.5 253 424.5 256.5 420.5 258.5C416.5 260.5 410.5 263.5 407 265C403.5 266.5 397 268.5 393 270C389 271.5 382.5 273 378.5 274C374.5 275 368.5 276 364.5 276.5C360.5 277 355 277 351 277C347 277 341.5 277 337.5 276.5C333.5 276 328 274.5 324 273.5C320 272.5 312.5 269.5 307.5 267.5C302.5 265.5 295.5 261.5 291 258.5C286.5 255.5 281 251 277.5 248C274 245 269.5 240.5 266.5 236.5C263.5 232.5 260.5 226.5 258.5 222.5C256.5 218.5 254.5 213 252.5 208.5C250.5 204 248 197.5 247 193C246 188.5 244.5 182.5 244 177.5C243.5 172.5 243.5 166 243.5 161C243.5 156 244.5 149.5 245 144.5C245.5 139.5 246.5 133.5 247.5 129C248.5 124.5 250.5 119 252 114.5C253.5 110 256 104.5 258 100.5C260 96.5 263.5 92 266 88.5C268.5 85 273 81 276.5 78C280 75 285.5 72 289.5 69.5C293.5 67 300 64 304.5 62C309 60 316 57.5 321 56.5C326 55.5 332.5 55 338 54.5C343.5 54 350.5 54 356 54.5C361.5 55 368 56 373.5 57C379 58 384.5 59.5 389 61C393.5 62.5 399 65 403 67C407 69 413 72.5 416.5 74.5C420 76.5 425 79.5 427.5 82C430 84.5 433.8 87.7 434.5 90.5C435.2 93.3 435.5 97.8 435.5 100.5C435.5 103.3 435.5 106.8 435 110C434.5 113.2 433.5 118.2 432.5 121C431.5 123.8 429.5 127.5 428 130C426.5 132.5 424.5 135.8 422.5 138C420.5 140.2 417.8 142.8 415.5 144.5C413.2 146.2 410.2 148.2 407.5 149.5C404.8 150.8 401.3 152.7 398.5 153.5C395.7 154.3 392.2 155.3 389.5 156C386.8 156.7 383.5 157.5 381 157.5C378.5 157.5 373.5 157.5 368.5 156.5C363.5 155.5 360.5 154.5 356.5 153.5C352.5 152.5 347.5 150.8 344.5 149.5C341.5 148.2 337.5 146.3 335 145C332.5 143.7 329.3 141.7 327 140C324.7 138.3 321.5 135.5 319.5 133.5C317.5 131.5 314.5 128.3 313 126C311.5 123.7 309.7 120.3 308.5 117.5C307.3 114.7 306.2 110.7 305.5 108C304.8 105.3 304 101.5 304 99C304 96.5 303.7 92.8 304 90.5C304.3 88.2 305 85.2 306 83C307 80.8 308.7 78 310.5 76C312.3 74 315.8 70.8 318 69.5C320.2 68.2 323.8 67 326.5 66C329.2 65 332.3 64.2 335 64C337.7 63.8 341.2 63.8 344 64C346.8 64.2 350.5 64.8 353 65.5C355.5 66.2 358.7 67.5 361 68.5C363.3 69.5 366.2 71 368 72C369.8 73 371.8 74.2 373 75C374.2 75.8 375.2 76.8 376 77.5C376.8 78.2 377.8 79 378.5 79.5C379.2 80 380.2 80.8 381 81.5C381.8 82.2 383 83.2 383.5 84C384 84.8 384.7 86.3 385 87C385.3 87.7 386 88.8 386 89.5C386 90.2 386 91.3 385.5 92C385 92.7 384.2 93.8 383.5 94.5C382.8 95.2 381.7 96.2 381 97C380.3 97.8 379.5 99 379 99.5C378.5 100 378 100.8 377.5 101.5C377 102.2 376 103.5 375.5 104C375 104.5 374 105.5 373.5 106C373 106.5 372.2 107.3 371.5 108C370.8 108.7 369.7 109.7 369 110.5C368.3 111.3 367.3 112.5 366.5 113.5C365.7 114.5 364.3 116 363.5 117C362.7 118 361.7 119.5 361 120.5C360.3 121.5 359.7 123 359 124C358.3 125 357.5 126.5 357 127.5C356.5 128.5 355.8 129.8 355.5 130.5C355.2 131.2 355 132.2 355 133C355 133.8 354.8 135 355 136C355.2 137 355.7 138.5 356 139.5C356.3 140.5 357 141.8 357.5 142.5C358 143.2 358.8 144.2 359.5 144.5C360.2 144.8 361.2 145 362 145C362.8 145 363.8 145 364.5 144.5C365.2 144 366 143.2 366.5 142.5C367 141.8 367.7 140.5 368 140C368.3 139.5 369 138.5 369.5 138C370 137.5 370.8 136.8 371.5 136.5C372.2 136.2 373.2 136 374 136C374.8 136 376.2 136.3 377 136.5C377.8 136.7 378.8 137.3 379.5 138C380.2 138.7 381 140 381.5 141C382 142 382.5 143.8 382.5 145C382.5 146.2 382.5 148 382 149C381.5 150 380.8 151.5 380 152.5C379.2 153.5 378 154.8 377 155.5C376 156.2 374.5 157.3 373.5 158C372.5 158.7 371 159.5 370 160C369 160.5 367.2 161.2 366 161.5C364.8 161.8 363 162.2 361.5 162.5C360 162.8 357.8 163 356 163C354.2 163 352 162.8 350.5 162.5C349 162.2 347.2 161.8 346 161.5C344.8 161.2 343 160.5 342 160C341 159.5 339.5 158.7 338.5 158C337.5 157.3 336 156.2 335 155.5C334 154.8 332.8 153.5 332 152.5C331.2 151.5 330.5 150 330 149C329.5 148 329 146.2 329 145C329 143.8 329 141.8 329.5 140.5C330 139.2 331 137.5 331.5 136.5C332 135.5 333 134 333.5 133C334 132 334.8 130.7 335 130C335.2 129.3 335.5 128.3 335.5 127.5C335.5 126.7 335.5 125.3 335 124.5C334.5 123.7 333.5 122.3 333 121.5C332.5 120.7 331.5 119.5 331 119C330.5 118.5 329.8 118 329.5 117.5C329.2 117 328.8 116.2 328.5 115.5C328.2 114.8 328 113.5 328 113C328 112.5 328 111.5 328.5 111C329 110.5 330 110 330.5 110C331 110 331.8 110 332.5 110.5C333.2 111 334 112 334.5 112.5C335 113 335.8 114 336 114.5C336.2 115 336 115.5 335.5 115.5C335 115.5 334 115.5 334 115.5C334 115.5 334.5 114.5 335 114C335.5 113.5 336.5 112.5 337 112C337.5 111.5 338.5 110.5 339 110C339.5 109.5 340.2 108.7 340.5 108C340.8 107.3 341.3 106.3 341.5 105.5C341.7 104.7 342 103.5 342 102.5C342 101.5 342 100 342 99C342 98 342 96.5 342 95.5C342 94.5 342 93 342 92C342 91 342 89.5 342 88.5C342 87.5 342 86 342 85C342 84 342 82.5 342 81.5C342 80.5 342 79 342 78C342 77 342 75.5 342 74.5C342 73.5 342 72 342 71C342 70 342 68.5 342 67.5C342 66.5 342 64.5 342 64.5C342 64.5 339.7 63.2 342 63.5C344.3 63.8 347.2 64.3 353.5 66C359.8 67.7 360.7 68.2 365.5 70C370.3 71.8 373.5 73.3 377 75.5C380.5 77.7 382.3 79.2 384.5 82C386.7 84.8 387.7 86.8 388.5 90C389.3 93.2 389.5 95.3 389 98.5C388.5 101.7 388 103.8 386.5 106.5C385 109.2 384 110.8 381.5 113C379 115.2 377.5 116.3 374 118C370.5 119.7 368.2 120.7 364 121.5C359.8 122.3 357.2 122.5 353 122.5C348.8 122.5 346.2 122.3 342 121.5C337.8 120.7 335.3 120 331.5 118C327.7 116 325.3 114.7 322.5 111.5C319.7 108.3 318.3 106 317 102C315.7 98 315.3 95.7 315.5 91.5C315.7 87.3 316.2 85 317.5 81C318.8 77 319.8 74.7 322.5 71.5C325.2 68.3 327.3 66.8 331 64.5C334.7 62.2 337 61.2 341.5 60C346 58.8 348.7 58.5 353.5 58.5C358.3 58.5 361 58.8 365.5 60C370 61.2 372.5 62.3 376.5 64.5C380.5 66.7 382.7 68 386 71C389.3 74 391 76 393 80C395 84 395.8 86.5 396.5 91C397.2 95.5 397.2 98.2 396.5 103C395.8 107.8 395 110.3 393 114.5C391 118.7 389.3 121 386 124.5C382.7 128 380.3 129.7 376 132.5C371.7 135.3 369 136.8 364 138.5C359 140.2 356 141 350.5 141.5C345 142 341.8 142 336.5 141C331.2 140 328.5 139 324 136.5C319.5 134 317.2 132.3 314.5 128.5C311.8 124.7 310.5 122.3 309.5 117.5C308.5 112.7 308.5 110 309.5 105C310.5 100 311.8 97.3 314.5 93C317.2 88.7 319.7 86.5 324 83.5C328.3 80.5 331.2 79.2 336.5 77.5C341.8 75.8 345 75.2 350.5 75C356 74.8 359.2 75 364 76C368.8 77 371.3 78.2 375 80.5C378.7 82.8 380.7 84.5 383 88C385.3 91.5 386.2 93.8 387 98C387.8 102.2 387.8 104.7 387 109C386.2 113.3 385.3 115.7 383 119.5C380.7 123.3 379 125.2 375 128C371 130.8 368.7 132.3 364 134C359.3 135.7 356.7 136.3 351.5 136.5C346.3 136.7 343.5 136.3 338.5 135C333.5 133.7 330.7 132.2 326.5 129C322.3 125.8 320.2 123.5 317.5 119C314.8 114.5 313.7 111.7 313 106.5C312.3 101.3 312.7 98.5 314 93.5C315.3 88.5 316.8 85.7 320 81.5C323.2 77.3 325.8 75.2 330.5 72C335.2 68.8 338.3 67.3 344 65.5C349.7 63.7 352.3 63.5 357.5 63.5C362.7 63.5 365.3 63.7 370 65C374.7 66.3 377.2 67.7 381 70.5C384.8 73.3 386.7 75.2 389.5 79C392.3 82.8 393.7 85.2 395 90C396.3 94.8 396.7 97.7 396 102.5C395.3 107.3 394.2 110 391.5 114C388.8 118 386.7 120.3 382.5 123.5C378.3 126.7 375.7 128.2 371 130C366.3 131.8 363.7 132.7 359.5 133C355.3 133.3 353.2 133 349.5 132C345.8 131 344 130 341 128C338 126 336.5 124.7 334.5 121.5C332.5 118.3 331.8 116.2 331.5 112.5C331.2 108.8 331.7 106.7 332.5 103C333.3 99.3 334.5 97.2 337 94C339.5 90.8 341.7 89.2 345.5 87.5C349.3 85.8 351.7 85.2 356 85C360.3 84.8 362.7 85.3 366.5 86.5C370.3 87.7 372.5 89 375.5 91.5C378.5 94 380 96 382 99.5C384 103 385 105.3 386 109.5C387 113.7 387.2 116.2 386.5 120.5C385.8 124.8 384.7 127.2 382.5 131C380.3 134.8 378.5 136.8 375 140C371.5 143.2 369.3 145 364.5 147.5C359.7 150 357 151 352 152C347 153 343.3 153.2 338.5 152C333.7 150.8 331 149.7 327 147C323 144.3 321 142.5 318.5 138.5C316 134.5 315 132 314.5 127.5C314 123 314.5 120.5 315.5 116C316.5 111.5 317.8 109 320.5 105C323.2 101 325.5 99 329.5 96C333.5 93 336.5 91.5 341 90C345.5 88.5 348.3 88.2 353 88.5C357.7 88.8 360.3 89.7 364.5 91.5C368.7 93.3 370.8 94.8 374 98C377.2 101.2 378.7 103.3 380.5 107.5C382.3 111.7 383 114.2 383 119C383 123.8 382.5 126.3 380.5 130.5C378.5 134.7 377 137 373.5 140.5C370 144 367.7 145.7 363 148C358.3 150.3 355.3 151.3 350 152C344.7 152.7 341.7 152.5 336.5 151C331.3 149.5 329 147.8 325 144.5C321 141.2 319 139 317 134.5C315 130 314.3 127.2 314.5 122C314.7 116.8 315.5 114 317.5 109C319.5 104 321.5 101.2 325.5 97.5C329.5 93.8 332.2 92 337 90C341.8 88 344.7 87.2 350 87.5C355.3 87.8 358.2 88.7 363 91C367.8 93.3 370.2 95 373.5 99C376.8 103 378 105.8 379 111C380 116.2 379.7 119.3 378 124.5C376.3 129.7 374.5 132.3 371 137C367.5 141.7 364.8 144 359.5 147.5C354.2 151 350.8 152.8 344.5 154.5C338.2 156.2 335 156.5 328.5 155.5C322 154.5 318.5 153 313 149.5C307.5 146 304.5 143.5 301 138C297.5 132.5 296 129 295 122.5C294 116 294.5 112.2 296.5 105.5C298.5 98.8 300.7 95.2 305 89.5C309.3 83.8 312.5 80.7 318.5 76.5C324.5 72.3 328.5 70.3 336 67.5C343.5 64.7 348 63.8 356 63C364 62.2 368.5 62.5 376.5 64.5C384.5 66.5 388.8 68.5 395.5 73C402.2 77.5 405.7 81 410.5 88C415.3 95 417.2 99.5 419.5 108C421.8 116.5 422.3 121.5 421.5 130.5C420.7 139.5 419.2 144.5 415.5 153C411.8 161.5 409 166 403 173C397 180 393.3 183.7 385.5 189C377.7 194.3 373 197 364 200C355 203 349.5 204 340 204.5C330.5 205 325.5 204.2 316 201.5C306.5 198.8 301.7 196.2 293.5 190C285.3 183.8 281.2 179.3 275.5 170.5C269.8 161.7 267.2 156 264.5 145.5C261.8 135 261.3 129 262 118C262.7 107 264.3 101 268 90.5C271.7 80 274.8 74.3 281.5 65.5C288.2 56.7 293.2 52.2 302.5 46C311.8 39.8 318 36.8 329 33.5C340 30.2 346.5 29.3 358 29C369.5 28.7 376 29.7 387 33C398 36.3 404 39.5 413.5 45.5C423 51.5 428.2 56 435.5 65C442.8 74 446.5 80 451 91.5C455.5 103 457.5 110 458.5 122.5C459.5 135 458.8 142 456 154.5C453.2 167 449.8 173.8 443 185C436.2 196.2 431.5 202.5 422 211.5C412.5 220.5 405.8 225.5 394 232C382.2 238.5 374.8 241.7 362 245C349.2 248.3 341.5 249.2 328.5 249C315.5 248.8 307.8 247.5 295.5 243.5C283.2 239.5 276 236 266 229C256 222 250.5 217 243 207C235.5 197 231.5 190.5 227 178C222.5 165.5 220.8 158 219.5 144.5C218.2 131 218.7 123.5 221 110C223.3 96.5 226.7 89 233 76.5C239.3 64 244.5 57 254 46.5C263.5 36 270.5 30.5 283 23C295.5 15.5 304 11.5 318.5 7C333 2.5 343.5 0.5 358.5 0C373.5 -0.5 390 1.7 396 2.5C402 3.3 407.5 4.8 412 6C416.5 7.2 422 9.2 425 10.5C428 11.8 432.3 13.7 434.5 15C436.7 16.3 440 18.8 441.5 20.5C443 22.2 445.3 24.5 447 27C448.7 29.5 450.7 34 452 36.5C453.3 39 455.2 42.8 456 45C456.8 47.2 457.8 50.5 458 52.5C458.2 54.5 458.2 57.5 458 59.5C457.8 61.5 457.2 64.5 456.5 66.5C455.8 68.5 454.5 71.5 453.5 73.5C452.5 75.5 451 78 450 79.5C449 81 447.5 83 446.5 84C445.5 85 444 86.5 443 87.5C442 88.5 440.5 90 439.5 91C438.5 92 437 93.5 436 94.5C435 95.5 433.5 96.8 432.5 97.5C431.5 98.2 430 99.5 429 100.5C428 101.5 426.5 103 425.5 104C424.5 105 422.5 106.5 422.5 106.5C422.5 106.5 423 111.5 423 113.5C423 115.5 423 118.5 422.5 120.5C422 122.5 421 126 420 128C419 130 417.5 132.5 416 134.5C414.5 136.5 412.5 139 411 140.5C409.5 142 407.5 144 406 145.5C404.5 147 402.5 149 401 150.5C399.5 152 397.5 154 396 155.5C394.5 157 393 159 391.5 160.5C390 162 388.5 164 387 165.5C385.5 167 384 169 382.5 170.5C381 172 379.5 174 378 175.5C376.5 177 375 179 373.5 180.5C372 182 370.5 184 369 185.5C367.5 187 366 189 364.5 190.5C363 192 361.5 194 360 195.5C358.5 197 357 199 355.5 200.5C354 202 352.5 204 351 205.5C349.5 207 348 209 346.5 210.5C345 212 343.5 214 342 215.5C340.5 217 339 219 337.5 220.5C336 222 334.5 224 333 225.5C331.5 227 330 229 328.5 230.5C327 232 325.5 234 324 235.5C322.5 237 321 239 319.5 240.5C318 242 316.5 244 315 245.5C313.5 247 312 249 310.5 250.5C309 252 307.5 254 306 255.5C304.5 257 303 259 301.5 260.5C300 262 298.5 264 297 265.5C295.5 267 294 269 292.5 270.5C291 272 289.5 274 288 275.5C286.5 277 285 279 283.5 280.5C282 282 280.5 284 279 285.5C277.5 287 276 289 274.5 290.5C273 292 271.5 294 270 295.5C268.5 297 267 299 265.5 300.5C264 302 262.5 304 261 305.5C259.5 307 258 309 256.5 310.5C255 312 253.5 314 252 315.5C250.5 317 249 319 247.5 320.5C246 322 244.5 324 243 325.5C241.5 327 240 329 238.5 330.5C237 332 235.5 334 234 335.5C232.5 337 231 339 229.5 340.5C228 342 226.5 344 225 345.5C223.5 347 222 349 220.5 350.5C219 352 217.5 354 216 355.5C214.5 357 213 359 211.5 360.5C210 362 208.5 364 207 365.5C205.5 367 204 369 202.5 370.5C201 372 199.5 374 198 375.5C196.5 377 195 379 193.5 380.5C192 382 190.5 384 189 385.5C187.5 387 186 389 184.5 390.5C183 392 181.5 394 180 395.5C178.5 397 177 399 175.5 400.5C174 402 172.5 404 171 405.5C169.5 407 168 409 166.5 410.5C165 412 163.5 414 162 415.5C160.5 417 159 419 157.5 420.5C156 422 154.5 424 153 425.5C151.5 427 150 429 148.5 430.5C147 432 145.5 434 144 435.5C142.5 437 141 439 139.5 440.5C138 442 136.5 444 135 445.5C133.5 447 132 449 130.5 450.5C129 452 127.5 454 126 455.5C124.5 457 123 459 121.5 460.5C120 462 118.5 464 117 465.5C115.5 467 114 469 112.5 470.5C111 472 109.5 474 108 475.5C106.5 477 105 479 103.5 480.5C102 482 100.5 484 99 485.5C97.5 487 96 489 94.5 490.5C93 492 91.5 494 90 495.5C88.5 497 87 499 85.5 500.5C84 502 82.5 504 81 505.5C79.5 507 78 509 76.5 510.5C75 512 73.5 514 72 515.5C70.5 517 69 519 67.5 520.5C66 522 64.5 524 63 525.5C61.5 527 60 529 58.5 530.5C57 532 55.5 534 54 535.5C52.5 537 51 539 49.5 540.5C48 542 46.5 544 45 545.5C43.5 547 42 549 40.5 550.5C39 552 37.5 554 36 555.5C34.5 557 33 559 31.5 560.5C30 562 28.5 564 27 565.5C25.5 567 24 569 22.5 570.5C21 572 19.5 574 18 575.5C16.5 577 15 579 13.5 580.5C12 582 10.5 584 9 585.5C7.5 587 6 589 4.5 590.5C3 592 1.5 594 0 595.5" stroke="#d3e5f0" stroke-width="3"/>
  <path d="M259 261C257.4 263.8 256.333 265.333 255.5 267.5C254.667 269.667 253.5 272.5 253 275C252.5 277.5 252 280.5 252 283.5C252 286.5 252.5 290 253 293C253.5 296 254.5 299.5 255.5 302.5C256.5 305.5 258 309 259.5 311.5C261 314 263 317 265 319.5C267 322 269.5 324.5 272 326.5C274.5 328.5 277.5 330.5 280.5 332C283.5 333.5 287 335 290 336C293 337 296.5 337.5 299.5 338C302.5 338.5 306 338.5 309 338.5C312 338.5 315.5 338 318.5 337.5C321.5 337 325 336 328 335C331 334 334.5 332.5 337.5 331C340.5 329.5 344 327 347 325C350 323 353 320.5 355.5 318C358 315.5 360.5 312.5 362.5 309.5C364.5 306.5 366 303 367.5 300C369 297 370 293.5 371 290C372 286.5 372.5 282.5 373 279C373.5 275.5 373.5 271.5 373.5 268C373.5 264.5 373 260.5 372.5 257C372 253.5 371 250 370 246.5C369 243 367.5 239.5 366 236C364.5 232.5 362.5 229 360.5 226C358.5 223 356 220 353.5 217.5C351 215 348 212.5 345 210.5C342 208.5 338.5 206.5 335 205C331.5 203.5 327.5 202 324 201C320.5 200 316.5 199 313 198.5C309.5 198 305.5 198 302 198C298.5 198 294.5 198.5 291 199C287.5 199.5 284 200.5 280.5 201.5C277 202.5 273.5 204 270 205.5C266.5 207 263 209 260 211C257 213 254 215.5 251.5 218C249 220.5 246.5 223.5 244.5 226.5C242.5 229.5 241 233 239.5 236C238 239 237 242.5 236 246C235 249.5 234.5 253 234 257C233.5 261 233.5 265 233.5 269C233.5 273 234 277 234.5 281C235 285 236 289 237 293C238 297 239.5 301 241 305C242.5 309 244.5 312.5 246.5 316C248.5 319.5 250.5 322.5 253 325.5C255.5 328.5 258.5 331 261.5 333.5C264.5 336 267.5 338 271 340C274.5 342 278 343.5 281.5 345C285 346.5 288.5 347.5 292.5 348.5C296.5 349.5 300.5 350 304.5 350C308.5 350 313 350 317 349.5C321 349 325 348 329 347C333 346 337 344.5 341 342.5C345 340.5 349 338.5 352.5 336C356 333.5 359.5 330.5 362.5 327.5C365.5 324.5 368 321 370.5 317.5C373 314 375 310 377 306C379 302 380.5 297.5 381.5 293C382.5 288.5 383.5 283.5 384 279C384.5 274.5 384.5 269.5 384.5 265C384.5 260.5 384 255.5 383.5 251C383 246.5 382 242 380.5 237.5C379 233 377.5 228.5 375.5 224.5C373.5 220.5 371 216.5 368.5 213C366 209.5 363 206.5 360 204C357 201.5 353.5 199 350 197C346.5 195 342.5 193.5 339 192C335.5 190.5 331.5 189.5 328 188.5C324.5 187.5 320.5 187 317 187C313.5 187 309.5 187 306 187.5C302.5 188 298.5 188.5 295 189.5C291.5 190.5 288 192 284.5 193.5C281 195 277.5 197 274.5 199C271.5 201 268.5 203.5 266 206C263.5 208.5 261 211.5 259 214.5C257 217.5 255 221 253.5 224.5C252 228 250.5 232 249.5 236C248.5 240 248 244.5 247.5 248.5C247 252.5 247 257 247 261C247 265 247.5 269.5 248 273.5C248.5 277.5 249.5 282 250.5 286C251.5 290 253 294 254.5 298C256 302 258 305.5 260 309C262 312.5 264.5 315.5 267 318.5C269.5 321.5 272.5 324 275.5 326.5C278.5 329 282 331 285.5 333C289 335 292.5 336.5 296.5 338C300.5 339.5 304.5 340.5 308.5 341C312.5 341.5 317 341.5 321 341.5C325 341.5 329.5 341 333.5 340.5C337.5 340 341.5 339 345.5 337.5C349.5 336 353.5 334 357 332C360.5 330 364 327.5 367 324.5C370 321.5 373 318 375.5 314.5C378 311 380 307 382 303C384 299 385.5 294.5 387 290C388.5 285.5 389.5 280.5 390 276C390.5 271.5 390.5 266.5 390.5 262C390.5 257.5 390 252.5 389.5 248C389 243.5 388 239 386.5 234.5C385 230 383.5 225.5 381.5 221.5C379.5 217.5 377 214 374.5 210.5C372 207 369 204 366 201C363 198 359.5 195.5 356 193.5C352.5 191.5 348.5 190 345 188.5C341.5 187 337.5 186 334 185C330.5 184 326.5 183.5 323 183.5C319.5 183.5 315.5 183.5 312 184C308.5 184.5 304.5 185.5 301 186.5C297.5 187.5 294 189 290.5 191C287 193 283.5 195 280.5 197.5C277.5 200 274.5 202.5 272 205.5C269.5 208.5 267 212 265 215.5C263 219 261.5 222.5 260 226.5C258.5 230.5 257.5 234.5 256.5 239C255.5 243.5 255 248 255 252.5C255 257 255 261.5 255.5 266C256 270.5 257 275 258 279.5C259 284 260.5 288 262.5 292C264.5 296 267 299.5 269.5 303C272 306.5 275 309.5 278 312.5C281 315.5 284.5 318 288 320.5C291.5 323 295.5 325 299.5 326.5C303.5 328 308 329 312 330C316 331 320.5 331.5 324.5 331.5C328.5 331.5 333 331 337 330.5C341 330 345 329 349 327.5C353 326 357 324 360.5 321.5C364 319 367.5 316 370.5 313C373.5 310 376 306.5 378.5 303C381 299.5 383 295.5 384.5 291.5C386 287.5 387 283 388 279C389 275 389.5 270.5 389.5 266.5C389.5 262.5 389.5 258 389 254C388.5 250 387.5 246 386.5 242C385.5 238 384 234 382 230.5C380 227 377.5 223.5 375 220.5C372.5 217.5 369.5 214.5 366.5 212C363.5 209.5 360 207.5 356.5 205.5C353 203.5 349 202 345.5 200.5C342 199 338 198 334.5 197.5C331 197 327 197 323.5 197C320 197 316 197.5 312.5 198C309 198.5 305.5 199.5 302 201C298.5 202.5 295 204 292 206C289 208 286 210.5 283 213C280 215.5 277.5 218.5 275 221.5C272.5 224.5 270.5 228 268.5 231.5C266.5 235 265 239 264 242.5C263 246 262 250 261.5 253.5C261 257 261 261 261 264.5C261 268 261.5 272 262 275.5C262.5 279 263.5 282.5 264.5 286C265.5 289.5 267 293 268.5 296C270 299 272 302 274 304.5C276 307 278.5 309.5 281 311.5C283.5 313.5 286.5 315.5 289.5 316.5C292.5 317.5 296 318.5 299 319C302 319.5 305.5 319.5 308.5 319.5C311.5 319.5 315 318.5 318 318C321 317.5 324 316.5 327 315C330 313.5 333 311.5 335.5 310C338 308.5 340.5 306 342.5 304C344.5 302 346 299.5 348 297C350 294.5 351.5 291.5 352.5 289C353.5 286.5 354.5 283.5 355 281C355.5 278.5 356 275.5 356 273C356 270.5 355.5 267.5 355 265C354.5 262.5 353.5 260 352.5 257.5C351.5 255 350 252.5 348.5 250.5C347 248.5 345 246.5 343 245C341 243.5 338.5 242 336 241C333.5 240 330.5 239 328 238.5C325.5 238 322.5 238 320 238C317.5 238 314.5 238.5 312 239C309.5 239.5 307 240.5 304.5 241.5C302 242.5 300 244 297.5 245.5C295 247 293 249 290.5 251C288 253 286 255.5 284 258C282 260.5 280.5 263.5 279 266C277.5 268.5 276.5 271.5 276 274C275.5 276.5 275 279.5 275 282C275 284.5 275 287.5 275.5 290C276 292.5 277 295 278 297.5C279 300 280.5 302 282 304C283.5 306 285.5 307.5 287.5 309C289.5 310.5 292 311.5 294.5 312.5C297 313.5 300 314 302.5 314.5C305 315 308 315 310.5 315C313 315 316 314.5 318.5 314C321 313.5 323.5 312.5 326 311.5C328.5 310.5 330.5 309 333 307.5C335.5 306 337.5 304 339.5 302C341.5 300 343 298 344.5 295.5C346 293 347 290.5 348 288C349 285.5 349.5 282.5 350 280C350.5 277.5 350.5 274.5 350.5 272C350.5 269.5 350 267 349.5 264.5C349 262 348 259.5 347 257C346 254.5 344.5 252.5 343 250.5C341.5 248.5 339.5 247 337.5 245.5C335.5 244 333 243 331 242C329 241 326.5 240.5 324 240C321.5 239.5 319 239.5 316.5 239.5C314 239.5 311.5 240 309 240.5C306.5 241 304 242 301.5 243C299 244 297 245 294.5 246.5C292 248 290 249.5 288 251.5C286 253.5 284 256 283 258C282 260 281 263 280 265C279 267 278.5 269.5 278.5 271.5C278.5 273.5 278.5 276 279 278C279.5 280 280.5 282 281.5 283.5C282.5 285 284 286.5 285.5 288C287 289.5 289 290.5 291 291.5C293 292.5 295.5 293 297.5 293.5C299.5 294 302 294 304 294C306 294 308.5 293.5 310.5 293C312.5 292.5 314.5 291.5 316.5 290.5C318.5 289.5 320.5 288 322 286.5C323.5 285 325 283 326 281.5C327 280 327.5 278 328 276C328.5 274 328.5 272 328.5 269.5C328.5 267 328 265 327.5 263C327 261 326.5 259 325.5 257.5C324.5 256 323 254.5 321.5 253.5C320 252.5 318 251.5 316 251C314 250.5 312 250 310 250C308 250 306 250 304 250.5C302 251 300 251.5 298 252.5C296 253.5 294.5 254.5 293 256C291.5 257.5 290 259 289 260.5C288 262 287.5 264 287 265.5C286.5 267 286.5 268.5 286.5 270C286.5 271.5 287 273 287.5 274.5C288 276 289 277 290 278C291 279 292.5 279.5 294 280C295.5 280.5 297 280.5 298.5 280.5C300 280.5 301.5 280 303 279.5C304.5 279 306 278 307 277C308 276 309 274.5 309.5 273.5C310 272.5 310 270.5 310 270" stroke="#d3e5f0" stroke-width="3"/>
</svg>
