<?xml version="1.0" encoding="UTF-8"?>
<svg width="100" height="100" viewBox="0 0 100 100" fill="none" xmlns="http://www.w3.org/2000/svg">
  <path d="M20 60C20 60 25 55 30 55C35 55 40 60 40 60" stroke="#DD2222" stroke-width="3" stroke-linecap="round"/>
  <path d="M60 60C60 60 65 55 70 55C75 55 80 60 80 60" stroke="#DD2222" stroke-width="3" stroke-linecap="round"/>
  <path d="M25 60L25 50L35 40L65 40L75 50L75 60" stroke="#DD2222" stroke-width="3" stroke-linecap="round" stroke-linejoin="round"/>
  <path d="M35 40L40 30L60 30L65 40" stroke="#DD2222" stroke-width="3" stroke-linecap="round" stroke-linejoin="round"/>
  <path d="M35 50L65 50" stroke="#DD2222" stroke-width="3" stroke-linecap="round"/>
  <path d="M50 50L50 40" stroke="#DD2222" stroke-width="3" stroke-linecap="round"/>
  <path d="M40 40L60 40" stroke="#DD2222" stroke-width="3" stroke-linecap="round"/>
  <path d="M25 50L75 50" stroke="#DD2222" stroke-width="3" stroke-linecap="round"/>
</svg>
