<?xml version="1.0" encoding="UTF-8"?>
<svg xmlns="http://www.w3.org/2000/svg" xmlns:xlink="http://www.w3.org/1999/xlink" width="1200" height="600" viewBox="0 0 30 15">
<rect width="30" height="15" fill="#ffbe29"/>
<rect width="28" height="13" x="1" y="1" fill="#8d1537"/>
<rect width="26" height="11" x="2" y="2" fill="#0b6b35"/>
<g id="sword" transform="translate(7,8.5) scale(1.4)">
<path fill="#ffbe29" d="M0,0V-6H0.5V0zM-0.5,-6h1V-5.5h-1z"/>
<circle r="1.125" fill="#ffbe29"/>
</g>
<g id="tip" fill="#ffbe29" transform="rotate(225) translate(-1.5,-1.5) scale(0.6)">
<rect width="1" height="6.5" x="-0.5" y="-7"/>
<path d="M-1.5,-0.5h3v1h-3zM-1.5,0.5 a1,1 0 0,0 3,0z"/>
</g>
<use xlink:href="#sword" transform="translate(2,0)"/>
<use xlink:href="#sword" transform="translate(4,0)"/>
<use xlink:href="#sword" transform="translate(6,0)"/>
<use xlink:href="#tip" transform="translate(2,5)"/>
<use xlink:href="#tip" transform="translate(4,5)"/>
<use xlink:href="#tip" transform="translate(6,5)"/>
<use xlink:href="#tip" transform="translate(8,5)"/>
<path fill="#ffbe29" d="M26,4.5c0,0.5-2.5,2-2.5,2S21,5,21,4.5s2.5-2,2.5-2S26,4,26,4.5z"/>
<circle r="1" fill="#8d1537" cx="23.5" cy="4.5"/>
<path fill="#ffbe29" d="M21,10.5c0,0.5,2.5,2,2.5,2s2.5-1.5,2.5-2-2.5-2-2.5-2S21,10,21,10.5z"/>
<circle r="1" fill="#8d1537" cx="23.5" cy="10.5"/>
<path fill="#ffbe29" d="M16.5,7.5c0.5,0,2,2.5,2,2.5s-1.5,2.5-2,2.5s-2-2.5-2-2.5S16,7.5,16.5,7.5z"/>
<circle r="1" fill="#8d1537" cx="16.5" cy="10"/>
<path fill="#ffbe29" d="M16.5,2c-0.5,0-2,2.5-2,2.5s1.5,2.5,2,2.5s2-2.5,2-2.5S17,2,16.5,2z"/>
<circle r="1" fill="#8d1537" cx="16.5" cy="4.5"/>
</svg>