<svg xmlns="http://www.w3.org/2000/svg" width="200" height="80" viewBox="0 0 200 80">
  <rect x="0" y="0" width="200" height="80" fill="#ffffff"/>
  <!-- BSL Text -->
  <text x="15" y="48" font-family="Arial, sans-serif" font-size="40" font-weight="bold" fill="#336699">BSL</text>
  
  <!-- Small divider -->
  <line x1="90" y1="20" x2="90" y2="60" stroke="#902923" stroke-width="2"/>
  
  <!-- Tours Text -->
  <text x="100" y="48" font-family="Arial, sans-serif" font-size="26" fill="#333333">TOURS</text>
  
  <!-- Small palm tree icon -->
  <path d="M175,20 C175,20 165,30 170,40 C175,50 180,60 180,60" stroke="#336699" stroke-width="2" fill="none"/>
  <path d="M175,20 C175,20 185,30 180,40 C175,50 170,60 170,60" stroke="#336699" stroke-width="2" fill="none"/>
  <path d="M175,60 L175,75" stroke="#336699" stroke-width="2" fill="none"/>
  
  <!-- Small wave representing water -->
  <path d="M150,70 C155,65 160,70 165,65 C170,60 175,65 180,60 C185,55 190,60 195,55" stroke="#90be6d" stroke-width="2" fill="none"/>
</svg>